<svg width="651" height="255" viewBox="0 0 651 255" fill="none" xmlns="http://www.w3.org/2000/svg">
<rect x="2.48633" y="55.7691" width="24" height="165" rx="8" fill="#F3EDFF"/>
<path d="M9.84722 241.478V246.239C9.84722 246.719 9.70022 247.106 9.40621 247.4C9.11221 247.688 8.71921 247.832 8.22721 247.832C7.71721 247.832 7.30921 247.679 7.00321 247.373C6.70321 247.061 6.55321 246.641 6.55321 246.113H7.19221C7.19821 246.455 7.28221 246.734 7.44421 246.95C7.61221 247.166 7.87321 247.274 8.22721 247.274C8.56321 247.274 8.81222 247.175 8.97422 246.977C9.13621 246.779 9.21721 246.533 9.21721 246.239V241.478H9.84722ZM15.0764 246.275H12.2144L11.6654 247.769H10.9994L13.2944 241.559H14.0054L16.2914 247.769H15.6254L15.0764 246.275ZM14.8874 245.753L13.6454 242.351L12.4034 245.753H14.8874ZM22.0455 247.769H21.4155L17.9325 242.477V247.769H17.3025V241.478H17.9325L21.4155 246.761V241.478H22.0455V247.769Z" fill="#271B2D"/>
<rect x="43.4863" y="97.7691" width="24" height="123" rx="8" fill="#F3EDFF"/>
<path d="M52.4408 241.478V242H49.6688V244.349H52.0088V244.871H49.6688V247.769H49.0388V241.478H52.4408ZM54.1073 241.991V244.34H56.4923V244.862H54.1073V247.247H56.7623V247.769H53.4773V241.469H56.7623V241.991H54.1073ZM60.9467 244.52C61.3007 244.586 61.6007 244.766 61.8467 245.06C62.0927 245.354 62.2157 245.696 62.2157 246.086C62.2157 246.404 62.1347 246.692 61.9727 246.95C61.8167 247.202 61.5857 247.403 61.2797 247.553C60.9737 247.697 60.6077 247.769 60.1817 247.769H58.0037V241.478H60.1187C60.7547 241.478 61.2377 241.625 61.5677 241.919C61.9037 242.213 62.0717 242.594 62.0717 243.062C62.0717 243.452 61.9667 243.77 61.7567 244.016C61.5467 244.256 61.2767 244.424 60.9467 244.52ZM58.6337 244.259H60.1007C60.5267 244.259 60.8537 244.16 61.0817 243.962C61.3157 243.758 61.4327 243.479 61.4327 243.125C61.4327 242.777 61.3157 242.504 61.0817 242.306C60.8537 242.108 60.5177 242.009 60.0737 242.009H58.6337V244.259ZM60.1367 247.238C60.5927 247.238 60.9467 247.13 61.1987 246.914C61.4567 246.698 61.5857 246.401 61.5857 246.023C61.5857 245.645 61.4507 245.345 61.1807 245.123C60.9167 244.895 60.5597 244.781 60.1097 244.781H58.6337V247.238H60.1367Z" fill="#271B2D"/>
<rect x="96.9863" y="150.769" width="24" height="70" rx="8" fill="#F3EDFF"/>
<path d="M106.489 241.559V247.769H105.859V242.81L103.645 247.769H103.186L100.972 242.828V247.769H100.342V241.559H101.008L103.411 246.941L105.814 241.559H106.489ZM111.563 246.275H108.701L108.152 247.769H107.486L109.781 241.559H110.492L112.778 247.769H112.112L111.563 246.275ZM111.374 245.753L110.132 242.351L108.89 245.753H111.374ZM117.137 247.769L115.58 245.141H114.419V247.769H113.789V241.478H115.679C116.381 241.478 116.912 241.646 117.272 241.982C117.638 242.318 117.821 242.759 117.821 243.305C117.821 243.761 117.689 244.151 117.425 244.475C117.167 244.793 116.783 245 116.273 245.096L117.893 247.769H117.137ZM114.419 244.628H115.688C116.18 244.628 116.549 244.508 116.795 244.268C117.047 244.028 117.173 243.707 117.173 243.305C117.173 242.891 117.053 242.573 116.813 242.351C116.573 242.123 116.195 242.009 115.679 242.009H114.419V244.628Z" fill="#271B2D"/>
<rect x="150.486" y="92.7691" width="24" height="128" rx="8" fill="#F3EDFF"/>
<path d="M158.735 246.275H155.873L155.324 247.769H154.658L156.953 241.559H157.664L159.95 247.769H159.284L158.735 246.275ZM158.546 245.753L157.304 242.351L156.062 245.753H158.546ZM164.984 243.287C164.984 243.827 164.807 244.262 164.453 244.592C164.099 244.922 163.568 245.087 162.86 245.087H161.591V247.769H160.961V241.478H162.86C163.562 241.478 164.09 241.643 164.444 241.973C164.804 242.303 164.984 242.741 164.984 243.287ZM162.86 244.547C163.844 244.547 164.336 244.127 164.336 243.287C164.336 242.867 164.219 242.549 163.985 242.333C163.751 242.117 163.376 242.009 162.86 242.009H161.591V244.547H162.86ZM169.389 247.769L167.832 245.141H166.671V247.769H166.041V241.478H167.931C168.633 241.478 169.164 241.646 169.524 241.982C169.89 242.318 170.073 242.759 170.073 243.305C170.073 243.761 169.941 244.151 169.677 244.475C169.419 244.793 169.035 245 168.525 245.096L170.145 247.769H169.389ZM166.671 244.628H167.94C168.432 244.628 168.801 244.508 169.047 244.268C169.299 244.028 169.425 243.707 169.425 243.305C169.425 242.891 169.305 242.573 169.065 242.351C168.825 242.123 168.447 242.009 167.931 242.009H166.671V244.628Z" fill="#271B2D"/>
<rect x="203.986" y="114.769" width="24" height="106" rx="8" fill="#F3EDFF"/>
<path d="M213.59 241.559V247.769H212.96V242.81L210.746 247.769H210.287L208.073 242.828V247.769H207.443V241.559H208.109L210.512 246.941L212.915 241.559H213.59ZM218.664 246.275H215.802L215.253 247.769H214.587L216.882 241.559H217.593L219.879 247.769H219.213L218.664 246.275ZM218.475 245.753L217.233 242.351L215.991 245.753H218.475ZM225.048 241.478L223.032 245.321V247.769H222.402V245.321L220.368 241.478H221.079L222.717 244.745L224.346 241.478H225.048Z" fill="#271B2D"/>
<rect x="262.486" y="45.7691" width="24" height="175" rx="8" fill="#7741E5"/>
<path d="M269.808 241.478V246.239C269.808 246.719 269.661 247.106 269.367 247.4C269.073 247.688 268.68 247.832 268.188 247.832C267.678 247.832 267.27 247.679 266.964 247.373C266.664 247.061 266.514 246.641 266.514 246.113H267.153C267.159 246.455 267.243 246.734 267.405 246.95C267.573 247.166 267.834 247.274 268.188 247.274C268.524 247.274 268.773 247.175 268.935 246.977C269.097 246.779 269.178 246.533 269.178 246.239V241.478H269.808ZM271.995 241.478V245.438C271.995 246.062 272.142 246.524 272.436 246.824C272.736 247.124 273.144 247.274 273.66 247.274C274.176 247.274 274.578 247.127 274.866 246.833C275.16 246.533 275.307 246.068 275.307 245.438V241.478H275.937V245.429C275.937 246.227 275.724 246.827 275.298 247.229C274.878 247.631 274.329 247.832 273.651 247.832C272.973 247.832 272.421 247.631 271.995 247.229C271.575 246.827 271.365 246.227 271.365 245.429V241.478H271.995ZM282.085 247.769H281.455L277.972 242.477V247.769H277.342V241.478H277.972L281.455 246.761V241.478H282.085V247.769Z" fill="#271B2D"/>
<rect x="228.986" y="0.138153" width="92" height="30" rx="4" fill="#371E6A"/>
<path d="M248.364 17.4642C248.364 17.9122 248.252 18.3415 248.028 18.7522C247.804 19.1535 247.473 19.4895 247.034 19.7602C246.605 20.0308 246.087 20.1848 245.48 20.2222V21.3562H244.724V20.2222C243.875 20.1475 243.184 19.8768 242.652 19.4102C242.12 18.9342 241.85 18.3322 241.84 17.6042H243.198C243.236 17.9962 243.38 18.3368 243.632 18.6262C243.894 18.9155 244.258 19.0975 244.724 19.1722V15.6722C244.099 15.5135 243.595 15.3502 243.212 15.1822C242.83 15.0142 242.503 14.7528 242.232 14.3982C241.962 14.0435 241.826 13.5675 241.826 12.9702C241.826 12.2142 242.088 11.5888 242.61 11.0942C243.142 10.5995 243.847 10.3242 244.724 10.2682V9.10615H245.48V10.2682C246.274 10.3335 246.913 10.5902 247.398 11.0382C247.884 11.4768 248.164 12.0508 248.238 12.7602H246.88C246.834 12.4335 246.689 12.1395 246.446 11.8782C246.204 11.6075 245.882 11.4302 245.48 11.3462V14.7622C246.096 14.9208 246.596 15.0842 246.978 15.2522C247.37 15.4108 247.697 15.6675 247.958 16.0222C248.229 16.3768 248.364 16.8575 248.364 17.4642ZM243.128 12.9002C243.128 13.3575 243.264 13.7075 243.534 13.9502C243.805 14.1928 244.202 14.3935 244.724 14.5522V11.3182C244.239 11.3648 243.852 11.5235 243.562 11.7942C243.273 12.0555 243.128 12.4242 243.128 12.9002ZM245.48 19.1862C245.984 19.1302 246.376 18.9482 246.656 18.6402C246.946 18.3322 247.09 17.9635 247.09 17.5342C247.09 17.0768 246.95 16.7268 246.67 16.4842C246.39 16.2322 245.994 16.0315 245.48 15.8822V19.1862ZM250.227 11.1782V10.0162H252.859V20.1382H251.571V11.1782H250.227ZM256.574 18.3742L255.006 22.1402H254.152L255.174 18.3742H256.574ZM257.795 12.5642C257.86 11.7055 258.192 11.0335 258.789 10.5482C259.386 10.0628 260.161 9.82015 261.113 9.82015C261.748 9.82015 262.294 9.93682 262.751 10.1702C263.218 10.3942 263.568 10.7022 263.801 11.0942C264.044 11.4862 264.165 11.9295 264.165 12.4242C264.165 13.0028 263.997 13.5022 263.661 13.9222C263.334 14.3422 262.905 14.6128 262.373 14.7342V14.8042C262.98 14.9535 263.46 15.2475 263.815 15.6862C264.17 16.1248 264.347 16.6988 264.347 17.4082C264.347 17.9402 264.226 18.4208 263.983 18.8502C263.74 19.2702 263.376 19.6015 262.891 19.8442C262.406 20.0868 261.822 20.2082 261.141 20.2082C260.152 20.2082 259.34 19.9515 258.705 19.4382C258.07 18.9155 257.716 18.1782 257.641 17.2262H258.873C258.938 17.7862 259.167 18.2435 259.559 18.5982C259.951 18.9528 260.474 19.1302 261.127 19.1302C261.78 19.1302 262.275 18.9622 262.611 18.6262C262.956 18.2808 263.129 17.8375 263.129 17.2962C263.129 16.5962 262.896 16.0922 262.429 15.7842C261.962 15.4762 261.258 15.3222 260.315 15.3222H259.993V14.2582H260.329C261.188 14.2488 261.836 14.1088 262.275 13.8382C262.714 13.5582 262.933 13.1288 262.933 12.5502C262.933 12.0555 262.77 11.6588 262.443 11.3602C262.126 11.0615 261.668 10.9122 261.071 10.9122C260.492 10.9122 260.026 11.0615 259.671 11.3602C259.316 11.6588 259.106 12.0602 259.041 12.5642H257.795ZM266.039 12.5642C266.105 11.7055 266.436 11.0335 267.033 10.5482C267.631 10.0628 268.405 9.82015 269.357 9.82015C269.992 9.82015 270.538 9.93682 270.995 10.1702C271.462 10.3942 271.812 10.7022 272.045 11.0942C272.288 11.4862 272.409 11.9295 272.409 12.4242C272.409 13.0028 272.241 13.5022 271.905 13.9222C271.579 14.3422 271.149 14.6128 270.617 14.7342V14.8042C271.224 14.9535 271.705 15.2475 272.059 15.6862C272.414 16.1248 272.591 16.6988 272.591 17.4082C272.591 17.9402 272.47 18.4208 272.227 18.8502C271.985 19.2702 271.621 19.6015 271.135 19.8442C270.65 20.0868 270.067 20.2082 269.385 20.2082C268.396 20.2082 267.584 19.9515 266.949 19.4382C266.315 18.9155 265.96 18.1782 265.885 17.2262H267.117C267.183 17.7862 267.411 18.2435 267.803 18.5982C268.195 18.9528 268.718 19.1302 269.371 19.1302C270.025 19.1302 270.519 18.9622 270.855 18.6262C271.201 18.2808 271.373 17.8375 271.373 17.2962C271.373 16.5962 271.14 16.0922 270.673 15.7842C270.207 15.4762 269.502 15.3222 268.559 15.3222H268.237V14.2582H268.573C269.432 14.2488 270.081 14.1088 270.519 13.8382C270.958 13.5582 271.177 13.1288 271.177 12.5502C271.177 12.0555 271.014 11.6588 270.687 11.3602C270.37 11.0615 269.913 10.9122 269.315 10.9122C268.737 10.9122 268.27 11.0615 267.915 11.3602C267.561 11.6588 267.351 12.0602 267.285 12.5642H266.039ZM274.003 17.8842V16.9182L278.917 10.1142H280.443V16.7782H281.843V17.8842H280.443V20.1382H279.183V17.8842H274.003ZM279.239 11.4442L275.473 16.7782H279.239V11.4442ZM283.116 14.9722C283.116 13.3668 283.377 12.1162 283.9 11.2202C284.423 10.3148 285.337 9.86215 286.644 9.86215C287.941 9.86215 288.851 10.3148 289.374 11.2202C289.897 12.1162 290.158 13.3668 290.158 14.9722C290.158 16.6055 289.897 17.8748 289.374 18.7802C288.851 19.6855 287.941 20.1382 286.644 20.1382C285.337 20.1382 284.423 19.6855 283.9 18.7802C283.377 17.8748 283.116 16.6055 283.116 14.9722ZM288.898 14.9722C288.898 14.1602 288.842 13.4742 288.73 12.9142C288.627 12.3448 288.408 11.8875 288.072 11.5422C287.745 11.1968 287.269 11.0242 286.644 11.0242C286.009 11.0242 285.524 11.1968 285.188 11.5422C284.861 11.8875 284.642 12.3448 284.53 12.9142C284.427 13.4742 284.376 14.1602 284.376 14.9722C284.376 15.8122 284.427 16.5168 284.53 17.0862C284.642 17.6555 284.861 18.1128 285.188 18.4582C285.524 18.8035 286.009 18.9762 286.644 18.9762C287.269 18.9762 287.745 18.8035 288.072 18.4582C288.408 18.1128 288.627 17.6555 288.73 17.0862C288.842 16.5168 288.898 15.8122 288.898 14.9722ZM291.907 14.9722C291.907 13.3668 292.168 12.1162 292.691 11.2202C293.214 10.3148 294.128 9.86215 295.435 9.86215C296.732 9.86215 297.642 10.3148 298.165 11.2202C298.688 12.1162 298.949 13.3668 298.949 14.9722C298.949 16.6055 298.688 17.8748 298.165 18.7802C297.642 19.6855 296.732 20.1382 295.435 20.1382C294.128 20.1382 293.214 19.6855 292.691 18.7802C292.168 17.8748 291.907 16.6055 291.907 14.9722ZM297.689 14.9722C297.689 14.1602 297.633 13.4742 297.521 12.9142C297.418 12.3448 297.199 11.8875 296.863 11.5422C296.536 11.1968 296.06 11.0242 295.435 11.0242C294.8 11.0242 294.315 11.1968 293.979 11.5422C293.652 11.8875 293.433 12.3448 293.321 12.9142C293.218 13.4742 293.167 14.1602 293.167 14.9722C293.167 15.8122 293.218 16.5168 293.321 17.0862C293.433 17.6555 293.652 18.1128 293.979 18.4582C294.315 18.8035 294.8 18.9762 295.435 18.9762C296.06 18.9762 296.536 18.8035 296.863 18.4582C297.199 18.1128 297.418 17.6555 297.521 17.0862C297.633 16.5168 297.689 15.8122 297.689 14.9722ZM300.698 14.9722C300.698 13.3668 300.959 12.1162 301.482 11.2202C302.005 10.3148 302.919 9.86215 304.226 9.86215C305.523 9.86215 306.433 10.3148 306.956 11.2202C307.479 12.1162 307.74 13.3668 307.74 14.9722C307.74 16.6055 307.479 17.8748 306.956 18.7802C306.433 19.6855 305.523 20.1382 304.226 20.1382C302.919 20.1382 302.005 19.6855 301.482 18.7802C300.959 17.8748 300.698 16.6055 300.698 14.9722ZM306.48 14.9722C306.48 14.1602 306.424 13.4742 306.312 12.9142C306.209 12.3448 305.99 11.8875 305.654 11.5422C305.327 11.1968 304.851 11.0242 304.226 11.0242C303.591 11.0242 303.106 11.1968 302.77 11.5422C302.443 11.8875 302.224 12.3448 302.112 12.9142C302.009 13.4742 301.958 14.1602 301.958 14.9722C301.958 15.8122 302.009 16.5168 302.112 17.0862C302.224 17.6555 302.443 18.1128 302.77 18.4582C303.106 18.8035 303.591 18.9762 304.226 18.9762C304.851 18.9762 305.327 18.8035 305.654 18.4582C305.99 18.1128 306.209 17.6555 306.312 17.0862C306.424 16.5168 306.48 15.8122 306.48 14.9722Z" fill="white"/>
<g filter="url(#filter0_d_1031_2984)">
<path d="M274.986 34.1382L279.486 30.1382L270.486 30.1382L274.986 34.1382Z" fill="#371E6A"/>
</g>
<rect x="322.486" y="83.7691" width="24" height="137" rx="8" fill="#F3EDFF"/>
<path d="M330.999 241.478V246.239C330.999 246.719 330.852 247.106 330.558 247.4C330.264 247.688 329.871 247.832 329.379 247.832C328.869 247.832 328.461 247.679 328.155 247.373C327.855 247.061 327.705 246.641 327.705 246.113H328.344C328.35 246.455 328.434 246.734 328.596 246.95C328.764 247.166 329.025 247.274 329.379 247.274C329.715 247.274 329.964 247.175 330.126 246.977C330.288 246.779 330.369 246.533 330.369 246.239V241.478H330.999ZM333.186 241.478V245.438C333.186 246.062 333.333 246.524 333.627 246.824C333.927 247.124 334.335 247.274 334.851 247.274C335.367 247.274 335.769 247.127 336.057 246.833C336.351 246.533 336.498 246.068 336.498 245.438V241.478H337.128V245.429C337.128 246.227 336.915 246.827 336.489 247.229C336.069 247.631 335.52 247.832 334.842 247.832C334.164 247.832 333.612 247.631 333.186 247.229C332.766 246.827 332.556 246.227 332.556 245.429V241.478H333.186ZM339.163 247.256H341.422V247.769H338.533V241.478H339.163V247.256Z" fill="#271B2D"/>
<rect x="379.986" y="25.7691" width="24" height="195" rx="8" fill="#F3EDFF"/>
<path d="M386.921 246.275H384.059L383.51 247.769H382.844L385.139 241.559H385.85L388.136 247.769H387.47L386.921 246.275ZM386.732 245.753L385.49 242.351L384.248 245.753H386.732ZM389.75 241.478V245.438C389.75 246.062 389.897 246.524 390.191 246.824C390.491 247.124 390.899 247.274 391.415 247.274C391.931 247.274 392.333 247.127 392.621 246.833C392.915 246.533 393.062 246.068 393.062 245.438V241.478H393.692V245.429C393.692 246.227 393.479 246.827 393.053 247.229C392.633 247.631 392.084 247.832 391.406 247.832C390.728 247.832 390.176 247.631 389.75 247.229C389.33 246.827 389.12 246.227 389.12 245.429V241.478H389.75ZM400.047 243.314C399.867 242.9 399.591 242.576 399.219 242.342C398.853 242.102 398.421 241.982 397.923 241.982C397.455 241.982 397.035 242.09 396.663 242.306C396.291 242.522 395.997 242.831 395.781 243.233C395.565 243.629 395.457 244.091 395.457 244.619C395.457 245.147 395.565 245.612 395.781 246.014C395.997 246.416 396.291 246.725 396.663 246.941C397.035 247.157 397.455 247.265 397.923 247.265C398.361 247.265 398.754 247.172 399.102 246.986C399.456 246.794 399.738 246.524 399.948 246.176C400.164 245.822 400.287 245.411 400.317 244.943H397.671V244.43H400.983V244.889C400.953 245.441 400.803 245.942 400.533 246.392C400.263 246.836 399.9 247.187 399.444 247.445C398.994 247.703 398.487 247.832 397.923 247.832C397.341 247.832 396.813 247.697 396.339 247.427C395.865 247.151 395.49 246.77 395.214 246.284C394.944 245.792 394.809 245.237 394.809 244.619C394.809 244.001 394.944 243.449 395.214 242.963C395.49 242.471 395.865 242.09 396.339 241.82C396.813 241.544 397.341 241.406 397.923 241.406C398.595 241.406 399.183 241.574 399.687 241.91C400.191 242.246 400.557 242.714 400.785 243.314H400.047Z" fill="#271B2D"/>
<rect x="435.986" y="102.769" width="24" height="118" rx="8" fill="#F3EDFF"/>
<path d="M443.236 247.832C442.822 247.832 442.456 247.76 442.138 247.616C441.826 247.472 441.58 247.271 441.4 247.013C441.22 246.755 441.124 246.467 441.112 246.149H441.778C441.808 246.455 441.943 246.725 442.183 246.959C442.423 247.187 442.774 247.301 443.236 247.301C443.662 247.301 443.998 247.193 444.244 246.977C444.496 246.755 444.622 246.476 444.622 246.14C444.622 245.87 444.553 245.654 444.415 245.492C444.277 245.324 444.106 245.201 443.902 245.123C443.698 245.039 443.416 244.949 443.056 244.853C442.636 244.739 442.303 244.628 442.057 244.52C441.811 244.412 441.601 244.244 441.427 244.016C441.253 243.788 441.166 243.479 441.166 243.089C441.166 242.765 441.25 242.477 441.418 242.225C441.586 241.967 441.823 241.766 442.129 241.622C442.435 241.478 442.786 241.406 443.182 241.406C443.764 241.406 444.232 241.55 444.586 241.838C444.946 242.12 445.153 242.486 445.207 242.936H444.523C444.481 242.678 444.34 242.45 444.1 242.252C443.86 242.048 443.536 241.946 443.128 241.946C442.75 241.946 442.435 242.048 442.183 242.252C441.931 242.45 441.805 242.723 441.805 243.071C441.805 243.335 441.874 243.548 442.012 243.71C442.15 243.872 442.321 243.995 442.525 244.079C442.735 244.163 443.017 244.253 443.371 244.349C443.779 244.463 444.109 244.577 444.361 244.691C444.613 244.799 444.826 244.967 445 245.195C445.174 245.423 445.261 245.729 445.261 246.113C445.261 246.407 445.183 246.686 445.027 246.95C444.871 247.214 444.64 247.427 444.334 247.589C444.028 247.751 443.662 247.832 443.236 247.832ZM447.108 241.991V244.34H449.493V244.862H447.108V247.247H449.763V247.769H446.478V241.469H449.763V241.991H447.108ZM455.028 243.287C455.028 243.827 454.851 244.262 454.497 244.592C454.143 244.922 453.612 245.087 452.904 245.087H451.635V247.769H451.005V241.478H452.904C453.606 241.478 454.134 241.643 454.488 241.973C454.848 242.303 455.028 242.741 455.028 243.287ZM452.904 244.547C453.888 244.547 454.38 244.127 454.38 243.287C454.38 242.867 454.263 242.549 454.029 242.333C453.795 242.117 453.42 242.009 452.904 242.009H451.635V244.547H452.904Z" fill="#271B2D"/>
<rect x="493.986" y="120.769" width="24" height="100" rx="8" fill="#F3EDFF"/>
<path d="M500.176 247.832C499.594 247.832 499.066 247.697 498.592 247.427C498.118 247.151 497.743 246.77 497.467 246.284C497.197 245.792 497.062 245.237 497.062 244.619C497.062 244.001 497.197 243.449 497.467 242.963C497.743 242.471 498.118 242.09 498.592 241.82C499.066 241.544 499.594 241.406 500.176 241.406C500.764 241.406 501.295 241.544 501.769 241.82C502.243 242.09 502.615 242.471 502.885 242.963C503.155 243.449 503.29 244.001 503.29 244.619C503.29 245.237 503.155 245.792 502.885 246.284C502.615 246.77 502.243 247.151 501.769 247.427C501.295 247.697 500.764 247.832 500.176 247.832ZM500.176 247.283C500.644 247.283 501.064 247.175 501.436 246.959C501.808 246.743 502.102 246.434 502.318 246.032C502.534 245.624 502.642 245.153 502.642 244.619C502.642 244.085 502.534 243.617 502.318 243.215C502.102 242.813 501.808 242.504 501.436 242.288C501.064 242.072 500.644 241.964 500.176 241.964C499.708 241.964 499.288 242.072 498.916 242.288C498.544 242.504 498.25 242.813 498.034 243.215C497.818 243.617 497.71 244.085 497.71 244.619C497.71 245.153 497.818 245.624 498.034 246.032C498.25 246.434 498.544 246.743 498.916 246.959C499.288 247.175 499.708 247.283 500.176 247.283ZM504.155 244.619C504.155 244.001 504.29 243.449 504.56 242.963C504.83 242.471 505.199 242.09 505.667 241.82C506.135 241.544 506.657 241.406 507.233 241.406C507.935 241.406 508.535 241.574 509.033 241.91C509.537 242.24 509.903 242.708 510.131 243.314H509.393C509.213 242.888 508.937 242.555 508.565 242.315C508.199 242.075 507.755 241.955 507.233 241.955C506.771 241.955 506.354 242.063 505.982 242.279C505.616 242.495 505.328 242.807 505.118 243.215C504.908 243.617 504.803 244.085 504.803 244.619C504.803 245.153 504.908 245.621 505.118 246.023C505.328 246.425 505.616 246.734 505.982 246.95C506.354 247.166 506.771 247.274 507.233 247.274C507.755 247.274 508.199 247.157 508.565 246.923C508.937 246.683 509.213 246.353 509.393 245.933H510.131C509.903 246.533 509.537 246.998 509.033 247.328C508.529 247.658 507.929 247.823 507.233 247.823C506.657 247.823 506.135 247.688 505.667 247.418C505.199 247.142 504.83 246.761 504.56 246.275C504.29 245.789 504.155 245.237 504.155 244.619ZM515.068 241.478V242H513.322V247.769H512.692V242H510.937V241.478H515.068Z" fill="#271B2D"/>
<rect x="552.486" y="68.7691" width="24" height="152" rx="8" fill="#F3EDFF"/>
<path d="M560.352 247.769H559.722L556.239 242.477V247.769H555.609V241.478H556.239L559.722 246.761V241.478H560.352V247.769ZM564.605 247.832C564.023 247.832 563.495 247.697 563.021 247.427C562.547 247.151 562.172 246.77 561.896 246.284C561.626 245.792 561.491 245.237 561.491 244.619C561.491 244.001 561.626 243.449 561.896 242.963C562.172 242.471 562.547 242.09 563.021 241.82C563.495 241.544 564.023 241.406 564.605 241.406C565.193 241.406 565.724 241.544 566.198 241.82C566.672 242.09 567.044 242.471 567.314 242.963C567.584 243.449 567.719 244.001 567.719 244.619C567.719 245.237 567.584 245.792 567.314 246.284C567.044 246.77 566.672 247.151 566.198 247.427C565.724 247.697 565.193 247.832 564.605 247.832ZM564.605 247.283C565.073 247.283 565.493 247.175 565.865 246.959C566.237 246.743 566.531 246.434 566.747 246.032C566.963 245.624 567.071 245.153 567.071 244.619C567.071 244.085 566.963 243.617 566.747 243.215C566.531 242.813 566.237 242.504 565.865 242.288C565.493 242.072 565.073 241.964 564.605 241.964C564.137 241.964 563.717 242.072 563.345 242.288C562.973 242.504 562.679 242.813 562.463 243.215C562.247 243.617 562.139 244.085 562.139 244.619C562.139 245.153 562.247 245.624 562.463 246.032C562.679 246.434 562.973 246.743 563.345 246.959C563.717 247.175 564.137 247.283 564.605 247.283ZM573.857 241.478L571.472 247.769H570.752L568.367 241.478H569.051L571.112 247.085L573.191 241.478H573.857Z" fill="#271B2D"/>
<rect x="610.986" y="81.7691" width="24" height="139" rx="8" fill="#F3EDFF"/>
<path d="M616.657 241.478C617.353 241.478 617.95 241.604 618.448 241.856C618.946 242.108 619.327 242.471 619.591 242.945C619.855 243.419 619.987 243.983 619.987 244.637C619.987 245.285 619.855 245.846 619.591 246.32C619.327 246.788 618.946 247.148 618.448 247.4C617.95 247.646 617.353 247.769 616.657 247.769H614.794V241.478H616.657ZM616.657 247.247C617.533 247.247 618.199 247.019 618.655 246.563C619.117 246.101 619.348 245.459 619.348 244.637C619.348 243.809 619.117 243.164 618.655 242.702C618.199 242.234 617.533 242 616.657 242H615.424V247.247H616.657ZM621.779 241.991V244.34H624.164V244.862H621.779V247.247H624.434V247.769H621.149V241.469H624.434V241.991H621.779ZM625.387 244.619C625.387 244.001 625.522 243.449 625.792 242.963C626.062 242.471 626.431 242.09 626.899 241.82C627.367 241.544 627.889 241.406 628.465 241.406C629.167 241.406 629.767 241.574 630.265 241.91C630.769 242.24 631.135 242.708 631.363 243.314H630.625C630.445 242.888 630.169 242.555 629.797 242.315C629.431 242.075 628.987 241.955 628.465 241.955C628.003 241.955 627.586 242.063 627.214 242.279C626.848 242.495 626.56 242.807 626.35 243.215C626.14 243.617 626.035 244.085 626.035 244.619C626.035 245.153 626.14 245.621 626.35 246.023C626.56 246.425 626.848 246.734 627.214 246.95C627.586 247.166 628.003 247.274 628.465 247.274C628.987 247.274 629.431 247.157 629.797 246.923C630.169 246.683 630.445 246.353 630.625 245.933H631.363C631.135 246.533 630.769 246.998 630.265 247.328C629.761 247.658 629.161 247.823 628.465 247.823C627.889 247.823 627.367 247.688 626.899 247.418C626.431 247.142 626.062 246.761 625.792 246.275C625.522 245.789 625.387 245.237 625.387 244.619Z" fill="#271B2D"/>
<defs>
<filter id="filter0_d_1031_2984" x="246.486" y="18.1382" width="57" height="52" filterUnits="userSpaceOnUse" color-interpolation-filters="sRGB">
<feFlood flood-opacity="0" result="BackgroundImageFix"/>
<feColorMatrix in="SourceAlpha" type="matrix" values="0 0 0 0 0 0 0 0 0 0 0 0 0 0 0 0 0 0 127 0" result="hardAlpha"/>
<feOffset dy="12"/>
<feGaussianBlur stdDeviation="12"/>
<feComposite in2="hardAlpha" operator="out"/>
<feColorMatrix type="matrix" values="0 0 0 0 0.230539 0 0 0 0 0.221944 0 0 0 0 0.283333 0 0 0 0.12 0"/>
<feBlend mode="normal" in2="BackgroundImageFix" result="effect1_dropShadow_1031_2984"/>
<feBlend mode="normal" in="SourceGraphic" in2="effect1_dropShadow_1031_2984" result="shape"/>
</filter>
</defs>
</svg>
