<svg width="692" height="338" viewBox="0 0 692 338" fill="none" xmlns="http://www.w3.org/2000/svg">
<rect width="78" height="304" rx="12" fill="#F3EDFF"/>
<path d="M28.272 324.709C28.968 324.709 29.565 324.835 30.063 325.087C30.561 325.339 30.942 325.702 31.206 326.176C31.47 326.65 31.602 327.214 31.602 327.868C31.602 328.516 31.47 329.077 31.206 329.551C30.942 330.019 30.561 330.379 30.063 330.631C29.565 330.877 28.968 331 28.272 331H26.409V324.709H28.272ZM28.272 330.478C29.148 330.478 29.814 330.25 30.27 329.794C30.732 329.332 30.963 328.69 30.963 327.868C30.963 327.04 30.732 326.395 30.27 325.933C29.814 325.465 29.148 325.231 28.272 325.231H27.039V330.478H28.272ZM36.1115 331L34.5545 328.372H33.3935V331H32.7635V324.709H34.6535C35.3555 324.709 35.8865 324.877 36.2465 325.213C36.6125 325.549 36.7955 325.99 36.7955 326.536C36.7955 326.992 36.6635 327.382 36.3995 327.706C36.1415 328.024 35.7575 328.231 35.2475 328.327L36.8675 331H36.1115ZM33.3935 327.859H34.6625C35.1545 327.859 35.5235 327.739 35.7695 327.499C36.0215 327.259 36.1475 326.938 36.1475 326.536C36.1475 326.122 36.0275 325.804 35.7875 325.582C35.5475 325.354 35.1695 325.24 34.6535 325.24H33.3935V327.859ZM41.6907 329.506H38.8287L38.2797 331H37.6137L39.9087 324.79H40.6197L42.9057 331H42.2397L41.6907 329.506ZM41.5017 328.984L40.2597 325.582L39.0177 328.984H41.5017ZM47.3188 324.709V325.231H44.5468V327.58H46.8868V328.102H44.5468V331H43.9168V324.709H47.3188ZM52.0363 324.709V325.231H50.2903V331H49.6603V325.231H47.9053V324.709H52.0363Z" fill="#271B2D"/>
<rect x="102" y="48" width="78" height="256" rx="12" fill="#F3EDFF"/>
<path d="M122.755 329.506H119.893L119.344 331H118.678L120.973 324.79H121.684L123.97 331H123.304L122.755 329.506ZM122.566 328.984L121.324 325.582L120.082 328.984H122.566ZM129.004 326.518C129.004 327.058 128.827 327.493 128.473 327.823C128.119 328.153 127.588 328.318 126.88 328.318H125.611V331H124.981V324.709H126.88C127.582 324.709 128.11 324.874 128.464 325.204C128.824 325.534 129.004 325.972 129.004 326.518ZM126.88 327.778C127.864 327.778 128.356 327.358 128.356 326.518C128.356 326.098 128.239 325.78 128.005 325.564C127.771 325.348 127.396 325.24 126.88 325.24H125.611V327.778H126.88ZM134.084 326.518C134.084 327.058 133.907 327.493 133.553 327.823C133.199 328.153 132.668 328.318 131.96 328.318H130.691V331H130.061V324.709H131.96C132.662 324.709 133.19 324.874 133.544 325.204C133.904 325.534 134.084 325.972 134.084 326.518ZM131.96 327.778C132.944 327.778 133.436 327.358 133.436 326.518C133.436 326.098 133.319 325.78 133.085 325.564C132.851 325.348 132.476 325.24 131.96 325.24H130.691V327.778H131.96ZM138.489 331L136.932 328.372H135.771V331H135.141V324.709H137.031C137.733 324.709 138.264 324.877 138.624 325.213C138.99 325.549 139.173 325.99 139.173 326.536C139.173 326.992 139.041 327.382 138.777 327.706C138.519 328.024 138.135 328.231 137.625 328.327L139.245 331H138.489ZM135.771 327.859H137.04C137.532 327.859 137.901 327.739 138.147 327.499C138.399 327.259 138.525 326.938 138.525 326.536C138.525 326.122 138.405 325.804 138.165 325.582C137.925 325.354 137.547 325.24 137.031 325.24H135.771V327.859ZM143.25 331.063C142.668 331.063 142.14 330.928 141.666 330.658C141.192 330.382 140.817 330.001 140.541 329.515C140.271 329.023 140.136 328.468 140.136 327.85C140.136 327.232 140.271 326.68 140.541 326.194C140.817 325.702 141.192 325.321 141.666 325.051C142.14 324.775 142.668 324.637 143.25 324.637C143.838 324.637 144.369 324.775 144.843 325.051C145.317 325.321 145.689 325.702 145.959 326.194C146.229 326.68 146.364 327.232 146.364 327.85C146.364 328.468 146.229 329.023 145.959 329.515C145.689 330.001 145.317 330.382 144.843 330.658C144.369 330.928 143.838 331.063 143.25 331.063ZM143.25 330.514C143.718 330.514 144.138 330.406 144.51 330.19C144.882 329.974 145.176 329.665 145.392 329.263C145.608 328.855 145.716 328.384 145.716 327.85C145.716 327.316 145.608 326.848 145.392 326.446C145.176 326.044 144.882 325.735 144.51 325.519C144.138 325.303 143.718 325.195 143.25 325.195C142.782 325.195 142.362 325.303 141.99 325.519C141.618 325.735 141.324 326.044 141.108 326.446C140.892 326.848 140.784 327.316 140.784 327.85C140.784 328.384 140.892 328.855 141.108 329.263C141.324 329.665 141.618 329.974 141.99 330.19C142.362 330.406 142.782 330.514 143.25 330.514ZM152.502 324.709L150.117 331H149.397L147.012 324.709H147.696L149.757 330.316L151.836 324.709H152.502ZM154.079 325.222V327.571H156.464V328.093H154.079V330.478H156.734V331H153.449V324.7H156.734V325.222H154.079ZM159.838 324.709C160.534 324.709 161.131 324.835 161.629 325.087C162.127 325.339 162.508 325.702 162.772 326.176C163.036 326.65 163.168 327.214 163.168 327.868C163.168 328.516 163.036 329.077 162.772 329.551C162.508 330.019 162.127 330.379 161.629 330.631C161.131 330.877 160.534 331 159.838 331H157.975V324.709H159.838ZM159.838 330.478C160.714 330.478 161.38 330.25 161.836 329.794C162.298 329.332 162.529 328.69 162.529 327.868C162.529 327.04 162.298 326.395 161.836 325.933C161.38 325.465 160.714 325.231 159.838 325.231H158.605V330.478H159.838Z" fill="#271B2D"/>
<rect x="205" y="169.714" width="78" height="134.286" rx="12" fill="#F3EDFF"/>
<path d="M227.405 331L225.848 328.372H224.687V331H224.057V324.709H225.947C226.649 324.709 227.18 324.877 227.54 325.213C227.906 325.549 228.089 325.99 228.089 326.536C228.089 326.992 227.957 327.382 227.693 327.706C227.435 328.024 227.051 328.231 226.541 328.327L228.161 331H227.405ZM224.687 327.859H225.956C226.448 327.859 226.817 327.739 227.063 327.499C227.315 327.259 227.441 326.938 227.441 326.536C227.441 326.122 227.321 325.804 227.081 325.582C226.841 325.354 226.463 325.24 225.947 325.24H224.687V327.859ZM229.969 325.222V327.571H232.354V328.093H229.969V330.478H232.624V331H229.339V324.7H232.624V325.222H229.969ZM236.773 324.709V329.47C236.773 329.95 236.626 330.337 236.332 330.631C236.038 330.919 235.645 331.063 235.153 331.063C234.643 331.063 234.235 330.91 233.929 330.604C233.629 330.292 233.479 329.872 233.479 329.344H234.118C234.124 329.686 234.208 329.965 234.37 330.181C234.538 330.397 234.799 330.505 235.153 330.505C235.489 330.505 235.738 330.406 235.9 330.208C236.062 330.01 236.143 329.764 236.143 329.47V324.709H236.773ZM238.987 325.222V327.571H241.372V328.093H238.987V330.478H241.642V331H238.357V324.7H241.642V325.222H238.987ZM242.595 327.85C242.595 327.232 242.73 326.68 243 326.194C243.27 325.702 243.639 325.321 244.107 325.051C244.575 324.775 245.097 324.637 245.673 324.637C246.375 324.637 246.975 324.805 247.473 325.141C247.977 325.471 248.343 325.939 248.571 326.545H247.833C247.653 326.119 247.377 325.786 247.005 325.546C246.639 325.306 246.195 325.186 245.673 325.186C245.211 325.186 244.794 325.294 244.422 325.51C244.056 325.726 243.768 326.038 243.558 326.446C243.348 326.848 243.243 327.316 243.243 327.85C243.243 328.384 243.348 328.852 243.558 329.254C243.768 329.656 244.056 329.965 244.422 330.181C244.794 330.397 245.211 330.505 245.673 330.505C246.195 330.505 246.639 330.388 247.005 330.154C247.377 329.914 247.653 329.584 247.833 329.164H248.571C248.343 329.764 247.977 330.229 247.473 330.559C246.969 330.889 246.369 331.054 245.673 331.054C245.097 331.054 244.575 330.919 244.107 330.649C243.639 330.373 243.27 329.992 243 329.506C242.73 329.02 242.595 328.468 242.595 327.85ZM253.507 324.709V325.231H251.761V331H251.131V325.231H249.376V324.709H253.507ZM255.132 325.222V327.571H257.517V328.093H255.132V330.478H257.787V331H254.502V324.7H257.787V325.222H255.132ZM260.892 324.709C261.588 324.709 262.185 324.835 262.683 325.087C263.181 325.339 263.562 325.702 263.826 326.176C264.09 326.65 264.222 327.214 264.222 327.868C264.222 328.516 264.09 329.077 263.826 329.551C263.562 330.019 263.181 330.379 262.683 330.631C262.185 330.877 261.588 331 260.892 331H259.029V324.709H260.892ZM260.892 330.478C261.768 330.478 262.434 330.25 262.89 329.794C263.352 329.332 263.583 328.69 263.583 327.868C263.583 327.04 263.352 326.395 262.89 325.933C262.434 325.465 261.768 325.231 260.892 325.231H259.659V330.478H260.892Z" fill="#271B2D"/>
<rect x="308" y="116.857" width="78" height="187.143" rx="12" fill="#F3EDFF"/>
<path d="M342.062 326.518C342.062 327.058 341.885 327.493 341.531 327.823C341.177 328.153 340.646 328.318 339.938 328.318H338.669V331H338.039V324.709H339.938C340.64 324.709 341.168 324.874 341.522 325.204C341.882 325.534 342.062 325.972 342.062 326.518ZM339.938 327.778C340.922 327.778 341.414 327.358 341.414 326.518C341.414 326.098 341.297 325.78 341.063 325.564C340.829 325.348 340.454 325.24 339.938 325.24H338.669V327.778H339.938ZM346.764 329.506H343.902L343.353 331H342.687L344.982 324.79H345.693L347.979 331H347.313L346.764 329.506ZM346.575 328.984L345.333 325.582L344.091 328.984H346.575ZM349.62 324.709V331H348.99V324.709H349.62ZM352.91 324.709C353.606 324.709 354.203 324.835 354.701 325.087C355.199 325.339 355.58 325.702 355.844 326.176C356.108 326.65 356.24 327.214 356.24 327.868C356.24 328.516 356.108 329.077 355.844 329.551C355.58 330.019 355.199 330.379 354.701 330.631C354.203 330.877 353.606 331 352.91 331H351.047V324.709H352.91ZM352.91 330.478C353.786 330.478 354.452 330.25 354.908 329.794C355.37 329.332 355.601 328.69 355.601 327.868C355.601 327.04 355.37 326.395 354.908 325.933C354.452 325.465 353.786 325.231 352.91 325.231H351.677V330.478H352.91Z" fill="#271B2D"/>
<rect x="410" y="8.28571" width="78" height="295.714" rx="12" fill="#8347FC"/>
<path d="M428.674 324.709C429.37 324.709 429.967 324.835 430.465 325.087C430.963 325.339 431.344 325.702 431.608 326.176C431.872 326.65 432.004 327.214 432.004 327.868C432.004 328.516 431.872 329.077 431.608 329.551C431.344 330.019 430.963 330.379 430.465 330.631C429.967 330.877 429.37 331 428.674 331H426.811V324.709H428.674ZM428.674 330.478C429.55 330.478 430.216 330.25 430.672 329.794C431.134 329.332 431.365 328.69 431.365 327.868C431.365 327.04 431.134 326.395 430.672 325.933C430.216 325.465 429.55 325.231 428.674 325.231H427.441V330.478H428.674ZM433.796 325.222V327.571H436.181V328.093H433.796V330.478H436.451V331H433.166V324.7H436.451V325.222H433.796ZM441.715 326.518C441.715 327.058 441.538 327.493 441.184 327.823C440.83 328.153 440.299 328.318 439.591 328.318H438.322V331H437.692V324.709H439.591C440.293 324.709 440.821 324.874 441.175 325.204C441.535 325.534 441.715 325.972 441.715 326.518ZM439.591 327.778C440.575 327.778 441.067 327.358 441.067 326.518C441.067 326.098 440.95 325.78 440.716 325.564C440.482 325.348 440.107 325.24 439.591 325.24H438.322V327.778H439.591ZM445.598 331.063C445.016 331.063 444.488 330.928 444.014 330.658C443.54 330.382 443.165 330.001 442.889 329.515C442.619 329.023 442.484 328.468 442.484 327.85C442.484 327.232 442.619 326.68 442.889 326.194C443.165 325.702 443.54 325.321 444.014 325.051C444.488 324.775 445.016 324.637 445.598 324.637C446.186 324.637 446.717 324.775 447.191 325.051C447.665 325.321 448.037 325.702 448.307 326.194C448.577 326.68 448.712 327.232 448.712 327.85C448.712 328.468 448.577 329.023 448.307 329.515C448.037 330.001 447.665 330.382 447.191 330.658C446.717 330.928 446.186 331.063 445.598 331.063ZM445.598 330.514C446.066 330.514 446.486 330.406 446.858 330.19C447.23 329.974 447.524 329.665 447.74 329.263C447.956 328.855 448.064 328.384 448.064 327.85C448.064 327.316 447.956 326.848 447.74 326.446C447.524 326.044 447.23 325.735 446.858 325.519C446.486 325.303 446.066 325.195 445.598 325.195C445.13 325.195 444.71 325.303 444.338 325.519C443.966 325.735 443.672 326.044 443.456 326.446C443.24 326.848 443.132 327.316 443.132 327.85C443.132 328.384 443.24 328.855 443.456 329.263C443.672 329.665 443.966 329.974 444.338 330.19C444.71 330.406 445.13 330.514 445.598 330.514ZM451.773 331.063C451.359 331.063 450.993 330.991 450.675 330.847C450.363 330.703 450.117 330.502 449.937 330.244C449.757 329.986 449.661 329.698 449.649 329.38H450.315C450.345 329.686 450.48 329.956 450.72 330.19C450.96 330.418 451.311 330.532 451.773 330.532C452.199 330.532 452.535 330.424 452.781 330.208C453.033 329.986 453.159 329.707 453.159 329.371C453.159 329.101 453.09 328.885 452.952 328.723C452.814 328.555 452.643 328.432 452.439 328.354C452.235 328.27 451.953 328.18 451.593 328.084C451.173 327.97 450.84 327.859 450.594 327.751C450.348 327.643 450.138 327.475 449.964 327.247C449.79 327.019 449.703 326.71 449.703 326.32C449.703 325.996 449.787 325.708 449.955 325.456C450.123 325.198 450.36 324.997 450.666 324.853C450.972 324.709 451.323 324.637 451.719 324.637C452.301 324.637 452.769 324.781 453.123 325.069C453.483 325.351 453.69 325.717 453.744 326.167H453.06C453.018 325.909 452.877 325.681 452.637 325.483C452.397 325.279 452.073 325.177 451.665 325.177C451.287 325.177 450.972 325.279 450.72 325.483C450.468 325.681 450.342 325.954 450.342 326.302C450.342 326.566 450.411 326.779 450.549 326.941C450.687 327.103 450.858 327.226 451.062 327.31C451.272 327.394 451.554 327.484 451.908 327.58C452.316 327.694 452.646 327.808 452.898 327.922C453.15 328.03 453.363 328.198 453.537 328.426C453.711 328.654 453.798 328.96 453.798 329.344C453.798 329.638 453.72 329.917 453.564 330.181C453.408 330.445 453.177 330.658 452.871 330.82C452.565 330.982 452.199 331.063 451.773 331.063ZM455.645 324.709V331H455.015V324.709H455.645ZM460.753 324.709V325.231H459.007V331H458.377V325.231H456.622V324.709H460.753ZM462.378 325.222V327.571H464.763V328.093H462.378V330.478H465.033V331H461.748V324.7H465.033V325.222H462.378ZM468.137 324.709C468.833 324.709 469.43 324.835 469.928 325.087C470.426 325.339 470.807 325.702 471.071 326.176C471.335 326.65 471.467 327.214 471.467 327.868C471.467 328.516 471.335 329.077 471.071 329.551C470.807 330.019 470.426 330.379 469.928 330.631C469.43 330.877 468.833 331 468.137 331H466.274V324.709H468.137ZM468.137 330.478C469.013 330.478 469.679 330.25 470.135 329.794C470.597 329.332 470.828 328.69 470.828 327.868C470.828 327.04 470.597 326.395 470.135 325.933C469.679 325.465 469.013 325.231 468.137 325.231H466.904V330.478H468.137Z" fill="#271B2D"/>
<rect x="512" y="101.143" width="78" height="202.857" rx="12" fill="#F3EDFF"/>
<path d="M526.15 327.85C526.15 327.232 526.285 326.68 526.555 326.194C526.825 325.702 527.194 325.321 527.662 325.051C528.13 324.775 528.652 324.637 529.228 324.637C529.93 324.637 530.53 324.805 531.028 325.141C531.532 325.471 531.898 325.939 532.126 326.545H531.388C531.208 326.119 530.932 325.786 530.56 325.546C530.194 325.306 529.75 325.186 529.228 325.186C528.766 325.186 528.349 325.294 527.977 325.51C527.611 325.726 527.323 326.038 527.113 326.446C526.903 326.848 526.798 327.316 526.798 327.85C526.798 328.384 526.903 328.852 527.113 329.254C527.323 329.656 527.611 329.965 527.977 330.181C528.349 330.397 528.766 330.505 529.228 330.505C529.75 330.505 530.194 330.388 530.56 330.154C530.932 329.914 531.208 329.584 531.388 329.164H532.126C531.898 329.764 531.532 330.229 531.028 330.559C530.524 330.889 529.924 331.054 529.228 331.054C528.652 331.054 528.13 330.919 527.662 330.649C527.194 330.373 526.825 329.992 526.555 329.506C526.285 329.02 526.15 328.468 526.15 327.85ZM536.208 331.063C535.626 331.063 535.098 330.928 534.624 330.658C534.15 330.382 533.775 330.001 533.499 329.515C533.229 329.023 533.094 328.468 533.094 327.85C533.094 327.232 533.229 326.68 533.499 326.194C533.775 325.702 534.15 325.321 534.624 325.051C535.098 324.775 535.626 324.637 536.208 324.637C536.796 324.637 537.327 324.775 537.801 325.051C538.275 325.321 538.647 325.702 538.917 326.194C539.187 326.68 539.322 327.232 539.322 327.85C539.322 328.468 539.187 329.023 538.917 329.515C538.647 330.001 538.275 330.382 537.801 330.658C537.327 330.928 536.796 331.063 536.208 331.063ZM536.208 330.514C536.676 330.514 537.096 330.406 537.468 330.19C537.84 329.974 538.134 329.665 538.35 329.263C538.566 328.855 538.674 328.384 538.674 327.85C538.674 327.316 538.566 326.848 538.35 326.446C538.134 326.044 537.84 325.735 537.468 325.519C537.096 325.303 536.676 325.195 536.208 325.195C535.74 325.195 535.32 325.303 534.948 325.519C534.576 325.735 534.282 326.044 534.066 326.446C533.85 326.848 533.742 327.316 533.742 327.85C533.742 328.384 533.85 328.855 534.066 329.263C534.282 329.665 534.576 329.974 534.948 330.19C535.32 330.406 535.74 330.514 536.208 330.514ZM546.621 324.79V331H545.991V326.041L543.777 331H543.318L541.104 326.059V331H540.474V324.79H541.14L543.543 330.172L545.946 324.79H546.621ZM552.074 326.518C552.074 327.058 551.897 327.493 551.543 327.823C551.189 328.153 550.658 328.318 549.95 328.318H548.681V331H548.051V324.709H549.95C550.652 324.709 551.18 324.874 551.534 325.204C551.894 325.534 552.074 325.972 552.074 326.518ZM549.95 327.778C550.934 327.778 551.426 327.358 551.426 326.518C551.426 326.098 551.309 325.78 551.075 325.564C550.841 325.348 550.466 325.24 549.95 325.24H548.681V327.778H549.95ZM553.761 330.487H556.02V331H553.131V324.709H553.761V330.487ZM557.549 325.222V327.571H559.934V328.093H557.549V330.478H560.204V331H556.919V324.7H560.204V325.222H557.549ZM565.126 324.709V325.231H563.38V331H562.75V325.231H560.995V324.709H565.126ZM566.751 325.222V327.571H569.136V328.093H566.751V330.478H569.406V331H566.121V324.7H569.406V325.222H566.751ZM572.51 324.709C573.206 324.709 573.803 324.835 574.301 325.087C574.799 325.339 575.18 325.702 575.444 326.176C575.708 326.65 575.84 327.214 575.84 327.868C575.84 328.516 575.708 329.077 575.444 329.551C575.18 330.019 574.799 330.379 574.301 330.631C573.803 330.877 573.206 331 572.51 331H570.647V324.709H572.51ZM572.51 330.478C573.386 330.478 574.052 330.25 574.508 329.794C574.97 329.332 575.201 328.69 575.201 327.868C575.201 327.04 574.97 326.395 574.508 325.933C574.052 325.465 573.386 325.231 572.51 325.231H571.277V330.478H572.51Z" fill="#271B2D"/>
<rect x="614" y="45.4286" width="78" height="258.571" rx="12" fill="#F3EDFF"/>
<path d="M636.713 331.063C636.131 331.063 635.603 330.928 635.129 330.658C634.655 330.382 634.28 330.001 634.004 329.515C633.734 329.023 633.599 328.468 633.599 327.85C633.599 327.232 633.734 326.68 634.004 326.194C634.28 325.702 634.655 325.321 635.129 325.051C635.603 324.775 636.131 324.637 636.713 324.637C637.301 324.637 637.832 324.775 638.306 325.051C638.78 325.321 639.152 325.702 639.422 326.194C639.692 326.68 639.827 327.232 639.827 327.85C639.827 328.468 639.692 329.023 639.422 329.515C639.152 330.001 638.78 330.382 638.306 330.658C637.832 330.928 637.301 331.063 636.713 331.063ZM636.713 330.514C637.181 330.514 637.601 330.406 637.973 330.19C638.345 329.974 638.639 329.665 638.855 329.263C639.071 328.855 639.179 328.384 639.179 327.85C639.179 327.316 639.071 326.848 638.855 326.446C638.639 326.044 638.345 325.735 637.973 325.519C637.601 325.303 637.181 325.195 636.713 325.195C636.245 325.195 635.825 325.303 635.453 325.519C635.081 325.735 634.787 326.044 634.571 326.446C634.355 326.848 634.247 327.316 634.247 327.85C634.247 328.384 634.355 328.855 634.571 329.263C634.787 329.665 635.081 329.974 635.453 330.19C635.825 330.406 636.245 330.514 636.713 330.514ZM645.966 324.709L643.581 331H642.861L640.476 324.709H641.16L643.221 330.316L645.3 324.709H645.966ZM647.543 325.222V327.571H649.928V328.093H647.543V330.478H650.198V331H646.913V324.7H650.198V325.222H647.543ZM654.787 331L653.23 328.372H652.069V331H651.439V324.709H653.329C654.031 324.709 654.562 324.877 654.922 325.213C655.288 325.549 655.471 325.99 655.471 326.536C655.471 326.992 655.339 327.382 655.075 327.706C654.817 328.024 654.433 328.231 653.923 328.327L655.543 331H654.787ZM652.069 327.859H653.338C653.83 327.859 654.199 327.739 654.445 327.499C654.697 327.259 654.823 326.938 654.823 326.536C654.823 326.122 654.703 325.804 654.463 325.582C654.223 325.354 653.845 325.24 653.329 325.24H652.069V327.859ZM658.584 324.709C659.28 324.709 659.877 324.835 660.375 325.087C660.873 325.339 661.254 325.702 661.518 326.176C661.782 326.65 661.914 327.214 661.914 327.868C661.914 328.516 661.782 329.077 661.518 329.551C661.254 330.019 660.873 330.379 660.375 330.631C659.877 330.877 659.28 331 658.584 331H656.721V324.709H658.584ZM658.584 330.478C659.46 330.478 660.126 330.25 660.582 329.794C661.044 329.332 661.275 328.69 661.275 327.868C661.275 327.04 661.044 326.395 660.582 325.933C660.126 325.465 659.46 325.231 658.584 325.231H657.351V330.478H658.584ZM663.679 324.709V328.669C663.679 329.293 663.826 329.755 664.12 330.055C664.42 330.355 664.828 330.505 665.344 330.505C665.86 330.505 666.262 330.358 666.55 330.064C666.844 329.764 666.991 329.299 666.991 328.669V324.709H667.621V328.66C667.621 329.458 667.408 330.058 666.982 330.46C666.562 330.862 666.013 331.063 665.335 331.063C664.657 331.063 664.105 330.862 663.679 330.46C663.259 330.058 663.049 329.458 663.049 328.66V324.709H663.679ZM669.656 325.222V327.571H672.041V328.093H669.656V330.478H672.311V331H669.026V324.7H672.311V325.222H669.656Z" fill="#271B2D"/>
</svg>
