<svg width="348" height="154" viewBox="0 0 348 154" fill="none" xmlns="http://www.w3.org/2000/svg">
<g clip-path="url(#clip0_1003_3008)">
<path d="M2.2793 65.2939C11.4441 62.3492 32.587 53.6223 43.8405 42.2719C57.9074 28.0839 81.5654 3.99113 102.026 25.6746C122.487 47.3582 139.112 71.1833 173 73.5926C206.889 76.0018 203.052 55.1214 217.758 55.1214C232.465 55.1214 233.744 93.6699 263.156 93.6699C292.569 93.6699 293.208 25.6746 345 25.6746" stroke="#8347FC" stroke-width="2"/>
<path d="M1 40.7157C13.5984 43.4125 41.4856 51.8214 52.2476 63.8832C65.7 78.9605 79.7931 80.4314 88.7614 80.4314C97.7298 80.4314 110.542 81.1669 138.087 59.4703C165.633 37.7738 189.335 1 217.521 1C245.707 1 255.957 19.3869 260.441 28.2126C264.925 37.0383 298.876 93.67 344.999 93.67" stroke="#22C55E" stroke-width="2"/>
<path opacity="0.2" d="M43.7107 43.3959C32.4657 54.9997 10.4763 63.1584 1.31836 66.1688L2.14958 107.514H344.614V26.1504C292.861 26.1504 292.96 93.8058 263.569 93.8058C234.179 93.8058 232.132 55.7773 217.436 55.7773C202.741 55.7773 207.245 76.3702 173.382 73.9071C139.519 71.4441 122.268 48.7841 101.822 26.6166C81.4139 4.48977 57.8539 28.8015 43.7884 43.3158L43.7107 43.3959Z" fill="url(#paint0_linear_1003_3008)"/>
<path opacity="0.2" d="M52.461 63.3247C41.7211 51.4444 13.8909 43.162 1.31836 40.5058V107.514H344.614V92.6633C298.585 92.6633 264.703 36.8838 260.228 28.1909C255.753 19.4979 245.525 1.3877 217.396 1.3877C189.268 1.3877 165.614 37.6082 138.125 58.9783C110.636 80.3483 97.8502 79.6239 88.9002 79.6239C79.9502 79.6239 65.886 78.1751 52.461 63.3247Z" fill="url(#paint1_linear_1003_3008)"/>
</g>
<g clip-path="url(#clip1_1003_3008)">
<g clip-path="url(#clip2_1003_3008)">
<line x1="28.625" y1="114" x2="28.625" y2="128" stroke="#D9C6FE"/>
<path d="M9.64439 144.572C9.64439 143.196 9.86839 142.124 10.3164 141.356C10.7644 140.58 11.5484 140.192 12.6684 140.192C13.7804 140.192 14.5604 140.58 15.0084 141.356C15.4564 142.124 15.6804 143.196 15.6804 144.572C15.6804 145.972 15.4564 147.06 15.0084 147.836C14.5604 148.612 13.7804 149 12.6684 149C11.5484 149 10.7644 148.612 10.3164 147.836C9.86839 147.06 9.64439 145.972 9.64439 144.572ZM14.6004 144.572C14.6004 143.876 14.5524 143.288 14.4564 142.808C14.3684 142.32 14.1804 141.928 13.8924 141.632C13.6124 141.336 13.2044 141.188 12.6684 141.188C12.1244 141.188 11.7084 141.336 11.4204 141.632C11.1404 141.928 10.9524 142.32 10.8564 142.808C10.7684 143.288 10.7244 143.876 10.7244 144.572C10.7244 145.292 10.7684 145.896 10.8564 146.384C10.9524 146.872 11.1404 147.264 11.4204 147.56C11.7084 147.856 12.1244 148.004 12.6684 148.004C13.2044 148.004 13.6124 147.856 13.8924 147.56C14.1804 147.264 14.3684 146.872 14.4564 146.384C14.5524 145.896 14.6004 145.292 14.6004 144.572ZM16.8915 141.32V140.324H19.1475V149H18.0435V141.32H16.8915ZM29.3465 147.14H25.6985L25.0265 149H23.8745L26.8985 140.684H28.1585L31.1705 149H30.0185L29.3465 147.14ZM29.0345 146.252L27.5225 142.028L26.0105 146.252H29.0345ZM38.3205 142.424V149H37.2285V148.028C37.0205 148.364 36.7285 148.628 36.3525 148.82C35.9845 149.004 35.5765 149.096 35.1285 149.096C34.6165 149.096 34.1565 148.992 33.7485 148.784C33.3405 148.568 33.0165 148.248 32.7765 147.824C32.5445 147.4 32.4285 146.884 32.4285 146.276V142.424H33.5085V146.132C33.5085 146.78 33.6725 147.28 34.0005 147.632C34.3285 147.976 34.7765 148.148 35.3445 148.148C35.9285 148.148 36.3885 147.968 36.7245 147.608C37.0605 147.248 37.2285 146.724 37.2285 146.036V142.424H38.3205ZM42.8762 142.316C43.4442 142.316 43.9402 142.44 44.3642 142.688C44.7962 142.936 45.1162 143.248 45.3242 143.624V142.424H46.4282V149.144C46.4282 149.744 46.3002 150.276 46.0442 150.74C45.7882 151.212 45.4202 151.58 44.9402 151.844C44.4682 152.108 43.9162 152.24 43.2842 152.24C42.4202 152.24 41.7002 152.036 41.1242 151.628C40.5482 151.22 40.2082 150.664 40.1042 149.96H41.1842C41.3042 150.36 41.5522 150.68 41.9282 150.92C42.3042 151.168 42.7562 151.292 43.2842 151.292C43.8842 151.292 44.3722 151.104 44.7482 150.728C45.1322 150.352 45.3242 149.824 45.3242 149.144V147.764C45.1082 148.148 44.7882 148.468 44.3642 148.724C43.9402 148.98 43.4442 149.108 42.8762 149.108C42.2922 149.108 41.7602 148.964 41.2802 148.676C40.8082 148.388 40.4362 147.984 40.1642 147.464C39.8922 146.944 39.7562 146.352 39.7562 145.688C39.7562 145.016 39.8922 144.428 40.1642 143.924C40.4362 143.412 40.8082 143.016 41.2802 142.736C41.7602 142.456 42.2922 142.316 42.8762 142.316ZM45.3242 145.7C45.3242 145.204 45.2242 144.772 45.0242 144.404C44.8242 144.036 44.5522 143.756 44.2082 143.564C43.8722 143.364 43.5002 143.264 43.0922 143.264C42.6842 143.264 42.3122 143.36 41.9762 143.552C41.6402 143.744 41.3722 144.024 41.1722 144.392C40.9722 144.76 40.8722 145.192 40.8722 145.688C40.8722 146.192 40.9722 146.632 41.1722 147.008C41.3722 147.376 41.6402 147.66 41.9762 147.86C42.3122 148.052 42.6842 148.148 43.0922 148.148C43.5002 148.148 43.8722 148.052 44.2082 147.86C44.5522 147.66 44.8242 147.376 45.0242 147.008C45.2242 146.632 45.3242 146.196 45.3242 145.7Z" fill="#3D3544"/>
</g>
<g clip-path="url(#clip3_1003_3008)">
<line x1="125.875" y1="114" x2="125.875" y2="128" stroke="#D9C6FE"/>
<path d="M105.031 144.572C105.031 143.196 105.255 142.124 105.703 141.356C106.151 140.58 106.935 140.192 108.055 140.192C109.167 140.192 109.947 140.58 110.395 141.356C110.843 142.124 111.067 143.196 111.067 144.572C111.067 145.972 110.843 147.06 110.395 147.836C109.947 148.612 109.167 149 108.055 149C106.935 149 106.151 148.612 105.703 147.836C105.255 147.06 105.031 145.972 105.031 144.572ZM109.987 144.572C109.987 143.876 109.939 143.288 109.843 142.808C109.755 142.32 109.567 141.928 109.279 141.632C108.999 141.336 108.591 141.188 108.055 141.188C107.511 141.188 107.095 141.336 106.807 141.632C106.527 141.928 106.339 142.32 106.243 142.808C106.155 143.288 106.111 143.876 106.111 144.572C106.111 145.292 106.155 145.896 106.243 146.384C106.339 146.872 106.527 147.264 106.807 147.56C107.095 147.856 107.511 148.004 108.055 148.004C108.591 148.004 108.999 147.856 109.279 147.56C109.567 147.264 109.755 146.872 109.843 146.384C109.939 145.896 109.987 145.292 109.987 144.572ZM114.15 144.488C113.702 144.312 113.358 144.056 113.118 143.72C112.878 143.384 112.758 142.976 112.758 142.496C112.758 142.064 112.866 141.676 113.082 141.332C113.298 140.98 113.618 140.704 114.042 140.504C114.474 140.296 114.994 140.192 115.602 140.192C116.21 140.192 116.726 140.296 117.15 140.504C117.582 140.704 117.906 140.98 118.122 141.332C118.346 141.676 118.458 142.064 118.458 142.496C118.458 142.96 118.334 143.368 118.086 143.72C117.838 144.064 117.498 144.32 117.066 144.488C117.562 144.64 117.954 144.908 118.242 145.292C118.538 145.668 118.686 146.124 118.686 146.66C118.686 147.18 118.558 147.636 118.302 148.028C118.046 148.412 117.682 148.712 117.21 148.928C116.746 149.136 116.21 149.24 115.602 149.24C114.994 149.24 114.458 149.136 113.994 148.928C113.538 148.712 113.182 148.412 112.926 148.028C112.67 147.636 112.542 147.18 112.542 146.66C112.542 146.124 112.686 145.664 112.974 145.28C113.262 144.896 113.654 144.632 114.15 144.488ZM117.402 142.628C117.402 142.14 117.242 141.764 116.922 141.5C116.602 141.236 116.162 141.104 115.602 141.104C115.05 141.104 114.614 141.236 114.294 141.5C113.974 141.764 113.814 142.144 113.814 142.64C113.814 143.088 113.978 143.448 114.306 143.72C114.642 143.992 115.074 144.128 115.602 144.128C116.138 144.128 116.57 143.992 116.898 143.72C117.234 143.44 117.402 143.076 117.402 142.628ZM115.602 144.968C115.01 144.968 114.526 145.108 114.15 145.388C113.774 145.66 113.586 146.072 113.586 146.624C113.586 147.136 113.766 147.548 114.126 147.86C114.494 148.172 114.986 148.328 115.602 148.328C116.218 148.328 116.706 148.172 117.066 147.86C117.426 147.548 117.606 147.136 117.606 146.624C117.606 146.088 117.422 145.68 117.054 145.4C116.686 145.112 116.202 144.968 115.602 144.968ZM128.46 147.14H124.812L124.14 149H122.988L126.012 140.684H127.272L130.284 149H129.132L128.46 147.14ZM128.148 146.252L126.636 142.028L125.124 146.252H128.148ZM137.434 142.424V149H136.342V148.028C136.134 148.364 135.842 148.628 135.466 148.82C135.098 149.004 134.69 149.096 134.242 149.096C133.73 149.096 133.27 148.992 132.862 148.784C132.454 148.568 132.13 148.248 131.89 147.824C131.658 147.4 131.542 146.884 131.542 146.276V142.424H132.622V146.132C132.622 146.78 132.786 147.28 133.114 147.632C133.442 147.976 133.89 148.148 134.458 148.148C135.042 148.148 135.502 147.968 135.838 147.608C136.174 147.248 136.342 146.724 136.342 146.036V142.424H137.434ZM141.99 142.316C142.558 142.316 143.054 142.44 143.478 142.688C143.91 142.936 144.23 143.248 144.438 143.624V142.424H145.542V149.144C145.542 149.744 145.414 150.276 145.158 150.74C144.902 151.212 144.534 151.58 144.054 151.844C143.582 152.108 143.03 152.24 142.398 152.24C141.534 152.24 140.814 152.036 140.238 151.628C139.662 151.22 139.322 150.664 139.218 149.96H140.298C140.418 150.36 140.666 150.68 141.042 150.92C141.418 151.168 141.87 151.292 142.398 151.292C142.998 151.292 143.486 151.104 143.862 150.728C144.246 150.352 144.438 149.824 144.438 149.144V147.764C144.222 148.148 143.902 148.468 143.478 148.724C143.054 148.98 142.558 149.108 141.99 149.108C141.406 149.108 140.874 148.964 140.394 148.676C139.922 148.388 139.55 147.984 139.278 147.464C139.006 146.944 138.87 146.352 138.87 145.688C138.87 145.016 139.006 144.428 139.278 143.924C139.55 143.412 139.922 143.016 140.394 142.736C140.874 142.456 141.406 142.316 141.99 142.316ZM144.438 145.7C144.438 145.204 144.338 144.772 144.138 144.404C143.938 144.036 143.666 143.756 143.322 143.564C142.986 143.364 142.614 143.264 142.206 143.264C141.798 143.264 141.426 143.36 141.09 143.552C140.754 143.744 140.486 144.024 140.286 144.392C140.086 144.76 139.986 145.192 139.986 145.688C139.986 146.192 140.086 146.632 140.286 147.008C140.486 147.376 140.754 147.66 141.09 147.86C141.426 148.052 141.798 148.148 142.206 148.148C142.614 148.148 142.986 148.052 143.322 147.86C143.666 147.66 143.938 147.376 144.138 147.008C144.338 146.632 144.438 146.196 144.438 145.7Z" fill="#3D3544"/>
</g>
<g clip-path="url(#clip4_1003_3008)">
<line x1="223.125" y1="114" x2="223.125" y2="128" stroke="#D9C6FE"/>
<path d="M203.856 141.32V140.324H206.112V149H205.008V141.32H203.856ZM213.52 141.272H209.308V144.008C209.492 143.752 209.764 143.544 210.124 143.384C210.484 143.216 210.872 143.132 211.288 143.132C211.952 143.132 212.492 143.272 212.908 143.552C213.324 143.824 213.62 144.18 213.796 144.62C213.98 145.052 214.072 145.512 214.072 146C214.072 146.576 213.964 147.092 213.748 147.548C213.532 148.004 213.2 148.364 212.752 148.628C212.312 148.892 211.764 149.024 211.108 149.024C210.268 149.024 209.588 148.808 209.068 148.376C208.548 147.944 208.232 147.368 208.12 146.648H209.188C209.292 147.104 209.512 147.46 209.848 147.716C210.184 147.972 210.608 148.1 211.12 148.1C211.752 148.1 212.228 147.912 212.548 147.536C212.868 147.152 213.028 146.648 213.028 146.024C213.028 145.4 212.868 144.92 212.548 144.584C212.228 144.24 211.756 144.068 211.132 144.068C210.708 144.068 210.336 144.172 210.016 144.38C209.704 144.58 209.476 144.856 209.332 145.208H208.3V140.312H213.52V141.272ZM223.847 147.14H220.199L219.527 149H218.375L221.399 140.684H222.659L225.671 149H224.519L223.847 147.14ZM223.535 146.252L222.023 142.028L220.511 146.252H223.535ZM232.82 142.424V149H231.728V148.028C231.52 148.364 231.228 148.628 230.852 148.82C230.484 149.004 230.076 149.096 229.628 149.096C229.116 149.096 228.656 148.992 228.248 148.784C227.84 148.568 227.516 148.248 227.276 147.824C227.044 147.4 226.928 146.884 226.928 146.276V142.424H228.008V146.132C228.008 146.78 228.172 147.28 228.5 147.632C228.828 147.976 229.276 148.148 229.844 148.148C230.428 148.148 230.888 147.968 231.224 147.608C231.56 147.248 231.728 146.724 231.728 146.036V142.424H232.82ZM237.376 142.316C237.944 142.316 238.44 142.44 238.864 142.688C239.296 142.936 239.616 143.248 239.824 143.624V142.424H240.928V149.144C240.928 149.744 240.8 150.276 240.544 150.74C240.288 151.212 239.92 151.58 239.44 151.844C238.968 152.108 238.416 152.24 237.784 152.24C236.92 152.24 236.2 152.036 235.624 151.628C235.048 151.22 234.708 150.664 234.604 149.96H235.684C235.804 150.36 236.052 150.68 236.428 150.92C236.804 151.168 237.256 151.292 237.784 151.292C238.384 151.292 238.872 151.104 239.248 150.728C239.632 150.352 239.824 149.824 239.824 149.144V147.764C239.608 148.148 239.288 148.468 238.864 148.724C238.44 148.98 237.944 149.108 237.376 149.108C236.792 149.108 236.26 148.964 235.78 148.676C235.308 148.388 234.936 147.984 234.664 147.464C234.392 146.944 234.256 146.352 234.256 145.688C234.256 145.016 234.392 144.428 234.664 143.924C234.936 143.412 235.308 143.016 235.78 142.736C236.26 142.456 236.792 142.316 237.376 142.316ZM239.824 145.7C239.824 145.204 239.724 144.772 239.524 144.404C239.324 144.036 239.052 143.756 238.708 143.564C238.372 143.364 238 143.264 237.592 143.264C237.184 143.264 236.812 143.36 236.476 143.552C236.14 143.744 235.872 144.024 235.672 144.392C235.472 144.76 235.372 145.192 235.372 145.688C235.372 146.192 235.472 146.632 235.672 147.008C235.872 147.376 236.14 147.66 236.476 147.86C236.812 148.052 237.184 148.148 237.592 148.148C238 148.148 238.372 148.052 238.708 147.86C239.052 147.66 239.324 147.376 239.524 147.008C239.724 146.632 239.824 146.196 239.824 145.7Z" fill="#3D3544"/>
</g>
<g clip-path="url(#clip5_1003_3008)">
<line x1="320.375" y1="114" x2="320.375" y2="128" stroke="#D9C6FE"/>
<path d="M300.05 148.124C301.066 147.308 301.862 146.64 302.438 146.12C303.014 145.592 303.498 145.044 303.89 144.476C304.29 143.9 304.49 143.336 304.49 142.784C304.49 142.264 304.362 141.856 304.106 141.56C303.858 141.256 303.454 141.104 302.894 141.104C302.35 141.104 301.926 141.276 301.622 141.62C301.326 141.956 301.166 142.408 301.142 142.976H300.086C300.118 142.08 300.39 141.388 300.902 140.9C301.414 140.412 302.074 140.168 302.882 140.168C303.706 140.168 304.358 140.396 304.838 140.852C305.326 141.308 305.57 141.936 305.57 142.736C305.57 143.4 305.37 144.048 304.97 144.68C304.578 145.304 304.13 145.856 303.626 146.336C303.122 146.808 302.478 147.36 301.694 147.992H305.822V148.904H300.05V148.124ZM306.952 148.124C307.968 147.308 308.764 146.64 309.34 146.12C309.916 145.592 310.4 145.044 310.792 144.476C311.192 143.9 311.392 143.336 311.392 142.784C311.392 142.264 311.264 141.856 311.008 141.56C310.76 141.256 310.356 141.104 309.796 141.104C309.252 141.104 308.828 141.276 308.524 141.62C308.228 141.956 308.068 142.408 308.044 142.976H306.988C307.02 142.08 307.292 141.388 307.804 140.9C308.316 140.412 308.976 140.168 309.784 140.168C310.608 140.168 311.26 140.396 311.74 140.852C312.228 141.308 312.472 141.936 312.472 142.736C312.472 143.4 312.272 144.048 311.872 144.68C311.48 145.304 311.032 145.856 310.528 146.336C310.024 146.808 309.38 147.36 308.596 147.992H312.724V148.904H306.952V148.124ZM322.309 147.14H318.661L317.989 149H316.837L319.861 140.684H321.121L324.133 149H322.981L322.309 147.14ZM321.997 146.252L320.485 142.028L318.973 146.252H321.997ZM331.283 142.424V149H330.191V148.028C329.983 148.364 329.691 148.628 329.315 148.82C328.947 149.004 328.539 149.096 328.091 149.096C327.579 149.096 327.119 148.992 326.711 148.784C326.303 148.568 325.979 148.248 325.739 147.824C325.507 147.4 325.391 146.884 325.391 146.276V142.424H326.471V146.132C326.471 146.78 326.635 147.28 326.963 147.632C327.291 147.976 327.739 148.148 328.307 148.148C328.891 148.148 329.351 147.968 329.687 147.608C330.023 147.248 330.191 146.724 330.191 146.036V142.424H331.283ZM335.839 142.316C336.407 142.316 336.903 142.44 337.327 142.688C337.759 142.936 338.079 143.248 338.287 143.624V142.424H339.391V149.144C339.391 149.744 339.263 150.276 339.007 150.74C338.751 151.212 338.383 151.58 337.903 151.844C337.431 152.108 336.879 152.24 336.247 152.24C335.383 152.24 334.663 152.036 334.087 151.628C333.511 151.22 333.171 150.664 333.067 149.96H334.147C334.267 150.36 334.515 150.68 334.891 150.92C335.267 151.168 335.719 151.292 336.247 151.292C336.847 151.292 337.335 151.104 337.711 150.728C338.095 150.352 338.287 149.824 338.287 149.144V147.764C338.071 148.148 337.751 148.468 337.327 148.724C336.903 148.98 336.407 149.108 335.839 149.108C335.255 149.108 334.723 148.964 334.243 148.676C333.771 148.388 333.399 147.984 333.127 147.464C332.855 146.944 332.719 146.352 332.719 145.688C332.719 145.016 332.855 144.428 333.127 143.924C333.399 143.412 333.771 143.016 334.243 142.736C334.723 142.456 335.255 142.316 335.839 142.316ZM338.287 145.7C338.287 145.204 338.187 144.772 337.987 144.404C337.787 144.036 337.515 143.756 337.171 143.564C336.835 143.364 336.463 143.264 336.055 143.264C335.647 143.264 335.275 143.36 334.939 143.552C334.603 143.744 334.335 144.024 334.135 144.392C333.935 144.76 333.835 145.192 333.835 145.688C333.835 146.192 333.935 146.632 334.135 147.008C334.335 147.376 334.603 147.66 334.939 147.86C335.275 148.052 335.647 148.148 336.055 148.148C336.463 148.148 336.835 148.052 337.171 147.86C337.515 147.66 337.787 147.376 337.987 147.008C338.187 146.632 338.287 146.196 338.287 145.7Z" fill="#3D3544"/>
</g>
</g>
<defs>
<linearGradient id="paint0_linear_1003_3008" x1="172.966" y1="17.711" x2="172.966" y2="107.514" gradientUnits="userSpaceOnUse">
<stop stop-color="#8347FC"/>
<stop offset="1" stop-color="#8347FC" stop-opacity="0"/>
</linearGradient>
<linearGradient id="paint1_linear_1003_3008" x1="172.966" y1="1.3877" x2="172.966" y2="107.514" gradientUnits="userSpaceOnUse">
<stop stop-color="#22C55E"/>
<stop offset="1" stop-color="#22C55E" stop-opacity="0"/>
</linearGradient>
<clipPath id="clip0_1003_3008">
<rect width="348" height="106" fill="white"/>
</clipPath>
<clipPath id="clip1_1003_3008">
<rect width="348" height="40" fill="white" transform="translate(0 114)"/>
</clipPath>
<clipPath id="clip2_1003_3008">
<rect width="56.25" height="40" fill="white" transform="translate(0 114)"/>
</clipPath>
<clipPath id="clip3_1003_3008">
<rect width="56.25" height="40" fill="white" transform="translate(97.25 114)"/>
</clipPath>
<clipPath id="clip4_1003_3008">
<rect width="56.25" height="40" fill="white" transform="translate(194.5 114)"/>
</clipPath>
<clipPath id="clip5_1003_3008">
<rect width="56.25" height="40" fill="white" transform="translate(291.75 114)"/>
</clipPath>
</defs>
</svg>
