<svg width="1465" height="339" viewBox="0 0 1465 339" fill="none" xmlns="http://www.w3.org/2000/svg">
<rect y="47" width="78" height="258" rx="12" fill="#F3EDFF"/>
<path d="M34.3609 325.709V330.47C34.3609 330.95 34.2139 331.337 33.9199 331.631C33.6259 331.919 33.2329 332.063 32.7409 332.063C32.2309 332.063 31.8229 331.91 31.5169 331.604C31.2169 331.292 31.0669 330.872 31.0669 330.344H31.7059C31.7119 330.686 31.7959 330.965 31.9579 331.181C32.1259 331.397 32.3869 331.505 32.7409 331.505C33.0769 331.505 33.3259 331.406 33.4879 331.208C33.6499 331.01 33.7309 330.764 33.7309 330.47V325.709H34.3609ZM39.5901 330.506H36.7281L36.1791 332H35.5131L37.8081 325.79H38.5191L40.8051 332H40.1391L39.5901 330.506ZM39.4011 329.984L38.1591 326.582L36.9171 329.984H39.4011ZM46.5592 332H45.9292L42.4462 326.708V332H41.8162V325.709H42.4462L45.9292 330.992V325.709H46.5592V332Z" fill="#271B2D"/>
<rect x="142.455" y="113" width="78" height="192" rx="12" fill="#F3EDFF"/>
<path d="M178.41 325.709V326.231H175.638V328.58H177.978V329.102H175.638V332H175.008V325.709H178.41ZM180.076 326.222V328.571H182.461V329.093H180.076V331.478H182.731V332H179.446V325.7H182.731V326.222H180.076ZM186.915 328.751C187.269 328.817 187.569 328.997 187.815 329.291C188.061 329.585 188.184 329.927 188.184 330.317C188.184 330.635 188.103 330.923 187.941 331.181C187.785 331.433 187.554 331.634 187.248 331.784C186.942 331.928 186.576 332 186.15 332H183.972V325.709H186.087C186.723 325.709 187.206 325.856 187.536 326.15C187.872 326.444 188.04 326.825 188.04 327.293C188.04 327.683 187.935 328.001 187.725 328.247C187.515 328.487 187.245 328.655 186.915 328.751ZM184.602 328.49H186.069C186.495 328.49 186.822 328.391 187.05 328.193C187.284 327.989 187.401 327.71 187.401 327.356C187.401 327.008 187.284 326.735 187.05 326.537C186.822 326.339 186.486 326.24 186.042 326.24H184.602V328.49ZM186.105 331.469C186.561 331.469 186.915 331.361 187.167 331.145C187.425 330.929 187.554 330.632 187.554 330.254C187.554 329.876 187.419 329.576 187.149 329.354C186.885 329.126 186.528 329.012 186.078 329.012H184.602V331.469H186.105Z" fill="#271B2D"/>
<rect x="271.908" y="195" width="78" height="110" rx="12" fill="#F3EDFF"/>
<path d="M308.41 325.79V332H307.78V327.041L305.566 332H305.107L302.893 327.059V332H302.263V325.79H302.929L305.332 331.172L307.735 325.79H308.41ZM313.485 330.506H310.623L310.074 332H309.408L311.703 325.79H312.414L314.7 332H314.034L313.485 330.506ZM313.296 329.984L312.054 326.582L310.812 329.984H313.296ZM319.059 332L317.502 329.372H316.341V332H315.711V325.709H317.601C318.303 325.709 318.834 325.877 319.194 326.213C319.56 326.549 319.743 326.99 319.743 327.536C319.743 327.992 319.611 328.382 319.347 328.706C319.089 329.024 318.705 329.231 318.195 329.327L319.815 332H319.059ZM316.341 328.859H317.61C318.102 328.859 318.471 328.739 318.717 328.499C318.969 328.259 319.095 327.938 319.095 327.536C319.095 327.122 318.975 326.804 318.735 326.582C318.495 326.354 318.117 326.24 317.601 326.24H316.341V328.859Z" fill="#271B2D"/>
<rect x="401.363" y="105" width="78" height="200" rx="12" fill="#8347FC"/>
<path d="M436.612 330.506H433.75L433.201 332H432.535L434.83 325.79H435.541L437.827 332H437.161L436.612 330.506ZM436.423 329.984L435.181 326.582L433.939 329.984H436.423ZM442.861 327.518C442.861 328.058 442.684 328.493 442.33 328.823C441.976 329.153 441.445 329.318 440.737 329.318H439.468V332H438.838V325.709H440.737C441.439 325.709 441.967 325.874 442.321 326.204C442.681 326.534 442.861 326.972 442.861 327.518ZM440.737 328.778C441.721 328.778 442.213 328.358 442.213 327.518C442.213 327.098 442.096 326.78 441.862 326.564C441.628 326.348 441.253 326.24 440.737 326.24H439.468V328.778H440.737ZM447.266 332L445.709 329.372H444.548V332H443.918V325.709H445.808C446.51 325.709 447.041 325.877 447.401 326.213C447.767 326.549 447.95 326.99 447.95 327.536C447.95 327.992 447.818 328.382 447.554 328.706C447.296 329.024 446.912 329.231 446.402 329.327L448.022 332H447.266ZM444.548 328.859H445.817C446.309 328.859 446.678 328.739 446.924 328.499C447.176 328.259 447.302 327.938 447.302 327.536C447.302 327.122 447.182 326.804 446.942 326.582C446.702 326.354 446.324 326.24 445.808 326.24H444.548V328.859Z" fill="#271B2D"/>
<rect x="530.818" y="139" width="78" height="166" rx="12" fill="#F3EDFF"/>
<path d="M567.422 325.79V332H566.792V327.041L564.578 332H564.119L561.905 327.059V332H561.275V325.79H561.941L564.344 331.172L566.747 325.79H567.422ZM572.496 330.506H569.634L569.085 332H568.419L570.714 325.79H571.425L573.711 332H573.045L572.496 330.506ZM572.307 329.984L571.065 326.582L569.823 329.984H572.307ZM578.88 325.709L576.864 329.552V332H576.234V329.552L574.2 325.709H574.911L576.549 328.976L578.178 325.709H578.88Z" fill="#271B2D"/>
<rect x="649.773" y="31" width="78" height="274" rx="12" fill="#F3EDFF"/>
<path d="M684.095 325.709V330.47C684.095 330.95 683.948 331.337 683.654 331.631C683.36 331.919 682.967 332.063 682.475 332.063C681.965 332.063 681.557 331.91 681.251 331.604C680.951 331.292 680.801 330.872 680.801 330.344H681.44C681.446 330.686 681.53 330.965 681.692 331.181C681.86 331.397 682.121 331.505 682.475 331.505C682.811 331.505 683.06 331.406 683.222 331.208C683.384 331.01 683.465 330.764 683.465 330.47V325.709H684.095ZM686.282 325.709V329.669C686.282 330.293 686.429 330.755 686.723 331.055C687.023 331.355 687.431 331.505 687.947 331.505C688.463 331.505 688.865 331.358 689.153 331.064C689.447 330.764 689.594 330.299 689.594 329.669V325.709H690.224V329.66C690.224 330.458 690.011 331.058 689.585 331.46C689.165 331.862 688.616 332.063 687.938 332.063C687.26 332.063 686.708 331.862 686.282 331.46C685.862 331.058 685.652 330.458 685.652 329.66V325.709H686.282ZM696.372 332H695.742L692.259 326.708V332H691.629V325.709H692.259L695.742 330.992V325.709H696.372V332Z" fill="#271B2D"/>
<rect x="411" y="51" width="53" height="30" rx="4" fill="#371E6A"/>
<path d="M423.532 62.04V60.878H426.164V71H424.876V62.04H423.532ZM429.878 69.236L428.31 73.002H427.456L428.478 69.236H429.878ZM430.792 62.04V60.878H433.424V71H432.136V62.04H430.792ZM435.584 63.426C435.649 62.5673 435.981 61.8953 436.578 61.41C437.175 60.9247 437.95 60.682 438.902 60.682C439.537 60.682 440.083 60.7987 440.54 61.032C441.007 61.256 441.357 61.564 441.59 61.956C441.833 62.348 441.954 62.7913 441.954 63.286C441.954 63.8647 441.786 64.364 441.45 64.784C441.123 65.204 440.694 65.4747 440.162 65.596V65.666C440.769 65.8153 441.249 66.1093 441.604 66.548C441.959 66.9867 442.136 67.5607 442.136 68.27C442.136 68.802 442.015 69.2827 441.772 69.712C441.529 70.132 441.165 70.4633 440.68 70.706C440.195 70.9487 439.611 71.07 438.93 71.07C437.941 71.07 437.129 70.8133 436.494 70.3C435.859 69.7773 435.505 69.04 435.43 68.088H436.662C436.727 68.648 436.956 69.1053 437.348 69.46C437.74 69.8147 438.263 69.992 438.916 69.992C439.569 69.992 440.064 69.824 440.4 69.488C440.745 69.1427 440.918 68.6993 440.918 68.158C440.918 67.458 440.685 66.954 440.218 66.646C439.751 66.338 439.047 66.184 438.104 66.184H437.782V65.12H438.118C438.977 65.1107 439.625 64.9707 440.064 64.7C440.503 64.42 440.722 63.9907 440.722 63.412C440.722 62.9173 440.559 62.5207 440.232 62.222C439.915 61.9233 439.457 61.774 438.86 61.774C438.281 61.774 437.815 61.9233 437.46 62.222C437.105 62.5207 436.895 62.922 436.83 63.426H435.584ZM443.828 63.426C443.894 62.5673 444.225 61.8953 444.822 61.41C445.42 60.9247 446.194 60.682 447.146 60.682C447.781 60.682 448.327 60.7987 448.784 61.032C449.251 61.256 449.601 61.564 449.834 61.956C450.077 62.348 450.198 62.7913 450.198 63.286C450.198 63.8647 450.03 64.364 449.694 64.784C449.368 65.204 448.938 65.4747 448.406 65.596V65.666C449.013 65.8153 449.494 66.1093 449.848 66.548C450.203 66.9867 450.38 67.5607 450.38 68.27C450.38 68.802 450.259 69.2827 450.016 69.712C449.774 70.132 449.41 70.4633 448.924 70.706C448.439 70.9487 447.856 71.07 447.174 71.07C446.185 71.07 445.373 70.8133 444.738 70.3C444.104 69.7773 443.749 69.04 443.674 68.088H444.906C444.972 68.648 445.2 69.1053 445.592 69.46C445.984 69.8147 446.507 69.992 447.16 69.992C447.814 69.992 448.308 69.824 448.644 69.488C448.99 69.1427 449.162 68.6993 449.162 68.158C449.162 67.458 448.929 66.954 448.462 66.646C447.996 66.338 447.291 66.184 446.348 66.184H446.026V65.12H446.362C447.221 65.1107 447.87 64.9707 448.308 64.7C448.747 64.42 448.966 63.9907 448.966 63.412C448.966 62.9173 448.803 62.5207 448.476 62.222C448.159 61.9233 447.702 61.774 447.104 61.774C446.526 61.774 446.059 61.9233 445.704 62.222C445.35 62.5207 445.14 62.922 445.074 63.426H443.828Z" fill="white"/>
<g filter="url(#filter0_d_1054_5115)">
<path d="M437.5 85L442 81L433 81L437.5 85Z" fill="#371E6A"/>
</g>
<rect x="770.227" y="91" width="78" height="214" rx="12" fill="#F3EDFF"/>
<path d="M805.739 325.709V330.47C805.739 330.95 805.592 331.337 805.298 331.631C805.004 331.919 804.611 332.063 804.119 332.063C803.609 332.063 803.201 331.91 802.895 331.604C802.595 331.292 802.445 330.872 802.445 330.344H803.084C803.09 330.686 803.174 330.965 803.336 331.181C803.504 331.397 803.765 331.505 804.119 331.505C804.455 331.505 804.704 331.406 804.866 331.208C805.028 331.01 805.109 330.764 805.109 330.47V325.709H805.739ZM807.926 325.709V329.669C807.926 330.293 808.073 330.755 808.367 331.055C808.667 331.355 809.075 331.505 809.591 331.505C810.107 331.505 810.509 331.358 810.797 331.064C811.091 330.764 811.238 330.299 811.238 329.669V325.709H811.868V329.66C811.868 330.458 811.655 331.058 811.229 331.46C810.809 331.862 810.26 332.063 809.582 332.063C808.904 332.063 808.352 331.862 807.926 331.46C807.506 331.058 807.296 330.458 807.296 329.66V325.709H807.926ZM813.903 331.487H816.162V332H813.273V325.709H813.903V331.487Z" fill="#271B2D"/>
<rect x="888.182" width="78" height="305" rx="12" fill="#F3EDFF"/>
<path d="M922.116 330.506H919.254L918.705 332H918.039L920.334 325.79H921.045L923.331 332H922.665L922.116 330.506ZM921.927 329.984L920.685 326.582L919.443 329.984H921.927ZM924.945 325.709V329.669C924.945 330.293 925.092 330.755 925.386 331.055C925.686 331.355 926.094 331.505 926.61 331.505C927.126 331.505 927.528 331.358 927.816 331.064C928.11 330.764 928.257 330.299 928.257 329.669V325.709H928.887V329.66C928.887 330.458 928.674 331.058 928.248 331.46C927.828 331.862 927.279 332.063 926.601 332.063C925.923 332.063 925.371 331.862 924.945 331.46C924.525 331.058 924.315 330.458 924.315 329.66V325.709H924.945ZM935.242 327.545C935.062 327.131 934.786 326.807 934.414 326.573C934.048 326.333 933.616 326.213 933.118 326.213C932.65 326.213 932.23 326.321 931.858 326.537C931.486 326.753 931.192 327.062 930.976 327.464C930.76 327.86 930.652 328.322 930.652 328.85C930.652 329.378 930.76 329.843 930.976 330.245C931.192 330.647 931.486 330.956 931.858 331.172C932.23 331.388 932.65 331.496 933.118 331.496C933.556 331.496 933.949 331.403 934.297 331.217C934.651 331.025 934.933 330.755 935.143 330.407C935.359 330.053 935.482 329.642 935.512 329.174H932.866V328.661H936.178V329.12C936.148 329.672 935.998 330.173 935.728 330.623C935.458 331.067 935.095 331.418 934.639 331.676C934.189 331.934 933.682 332.063 933.118 332.063C932.536 332.063 932.008 331.928 931.534 331.658C931.06 331.382 930.685 331.001 930.409 330.515C930.139 330.023 930.004 329.468 930.004 328.85C930.004 328.232 930.139 327.68 930.409 327.194C930.685 326.702 931.06 326.321 931.534 326.051C932.008 325.775 932.536 325.637 933.118 325.637C933.79 325.637 934.378 325.805 934.882 326.141C935.386 326.477 935.752 326.945 935.98 327.545H935.242Z" fill="#271B2D"/>
<rect x="1017.64" y="120" width="78" height="185" rx="12" fill="#F3EDFF"/>
<path d="M1051.89 332.063C1051.47 332.063 1051.11 331.991 1050.79 331.847C1050.48 331.703 1050.23 331.502 1050.05 331.244C1049.87 330.986 1049.77 330.698 1049.76 330.38H1050.43C1050.46 330.686 1050.59 330.956 1050.83 331.19C1051.07 331.418 1051.42 331.532 1051.89 331.532C1052.31 331.532 1052.65 331.424 1052.89 331.208C1053.15 330.986 1053.27 330.707 1053.27 330.371C1053.27 330.101 1053.2 329.885 1053.07 329.723C1052.93 329.555 1052.76 329.432 1052.55 329.354C1052.35 329.27 1052.07 329.18 1051.71 329.084C1051.29 328.97 1050.95 328.859 1050.71 328.751C1050.46 328.643 1050.25 328.475 1050.08 328.247C1049.9 328.019 1049.82 327.71 1049.82 327.32C1049.82 326.996 1049.9 326.708 1050.07 326.456C1050.24 326.198 1050.47 325.997 1050.78 325.853C1051.09 325.709 1051.44 325.637 1051.83 325.637C1052.41 325.637 1052.88 325.781 1053.24 326.069C1053.6 326.351 1053.8 326.717 1053.86 327.167H1053.17C1053.13 326.909 1052.99 326.681 1052.75 326.483C1052.51 326.279 1052.19 326.177 1051.78 326.177C1051.4 326.177 1051.09 326.279 1050.83 326.483C1050.58 326.681 1050.46 326.954 1050.46 327.302C1050.46 327.566 1050.52 327.779 1050.66 327.941C1050.8 328.103 1050.97 328.226 1051.18 328.31C1051.39 328.394 1051.67 328.484 1052.02 328.58C1052.43 328.694 1052.76 328.808 1053.01 328.922C1053.26 329.03 1053.48 329.198 1053.65 329.426C1053.82 329.654 1053.91 329.96 1053.91 330.344C1053.91 330.638 1053.83 330.917 1053.68 331.181C1053.52 331.445 1053.29 331.658 1052.98 331.82C1052.68 331.982 1052.31 332.063 1051.89 332.063ZM1055.76 326.222V328.571H1058.14V329.093H1055.76V331.478H1058.41V332H1055.13V325.7H1058.41V326.222H1055.76ZM1063.68 327.518C1063.68 328.058 1063.5 328.493 1063.15 328.823C1062.79 329.153 1062.26 329.318 1061.55 329.318H1060.29V332H1059.66V325.709H1061.55C1062.26 325.709 1062.78 325.874 1063.14 326.204C1063.5 326.534 1063.68 326.972 1063.68 327.518ZM1061.55 328.778C1062.54 328.778 1063.03 328.358 1063.03 327.518C1063.03 327.098 1062.91 326.78 1062.68 326.564C1062.45 326.348 1062.07 326.24 1061.55 326.24H1060.29V328.778H1061.55Z" fill="#271B2D"/>
<rect x="1149.09" y="148" width="78" height="157" rx="12" fill="#F3EDFF"/>
<path d="M1182.28 332.063C1181.7 332.063 1181.17 331.928 1180.7 331.658C1180.22 331.382 1179.85 331.001 1179.57 330.515C1179.3 330.023 1179.17 329.468 1179.17 328.85C1179.17 328.232 1179.3 327.68 1179.57 327.194C1179.85 326.702 1180.22 326.321 1180.7 326.051C1181.17 325.775 1181.7 325.637 1182.28 325.637C1182.87 325.637 1183.4 325.775 1183.87 326.051C1184.35 326.321 1184.72 326.702 1184.99 327.194C1185.26 327.68 1185.39 328.232 1185.39 328.85C1185.39 329.468 1185.26 330.023 1184.99 330.515C1184.72 331.001 1184.35 331.382 1183.87 331.658C1183.4 331.928 1182.87 332.063 1182.28 332.063ZM1182.28 331.514C1182.75 331.514 1183.17 331.406 1183.54 331.19C1183.91 330.974 1184.21 330.665 1184.42 330.263C1184.64 329.855 1184.75 329.384 1184.75 328.85C1184.75 328.316 1184.64 327.848 1184.42 327.446C1184.21 327.044 1183.91 326.735 1183.54 326.519C1183.17 326.303 1182.75 326.195 1182.28 326.195C1181.81 326.195 1181.39 326.303 1181.02 326.519C1180.65 326.735 1180.35 327.044 1180.14 327.446C1179.92 327.848 1179.81 328.316 1179.81 328.85C1179.81 329.384 1179.92 329.855 1180.14 330.263C1180.35 330.665 1180.65 330.974 1181.02 331.19C1181.39 331.406 1181.81 331.514 1182.28 331.514ZM1186.26 328.85C1186.26 328.232 1186.39 327.68 1186.66 327.194C1186.93 326.702 1187.3 326.321 1187.77 326.051C1188.24 325.775 1188.76 325.637 1189.34 325.637C1190.04 325.637 1190.64 325.805 1191.14 326.141C1191.64 326.471 1192.01 326.939 1192.23 327.545H1191.5C1191.32 327.119 1191.04 326.786 1190.67 326.546C1190.3 326.306 1189.86 326.186 1189.34 326.186C1188.87 326.186 1188.46 326.294 1188.09 326.51C1187.72 326.726 1187.43 327.038 1187.22 327.446C1187.01 327.848 1186.91 328.316 1186.91 328.85C1186.91 329.384 1187.01 329.852 1187.22 330.254C1187.43 330.656 1187.72 330.965 1188.09 331.181C1188.46 331.397 1188.87 331.505 1189.34 331.505C1189.86 331.505 1190.3 331.388 1190.67 331.154C1191.04 330.914 1191.32 330.584 1191.5 330.164H1192.23C1192.01 330.764 1191.64 331.229 1191.14 331.559C1190.63 331.889 1190.03 332.054 1189.34 332.054C1188.76 332.054 1188.24 331.919 1187.77 331.649C1187.3 331.373 1186.93 330.992 1186.66 330.506C1186.39 330.02 1186.26 329.468 1186.26 328.85ZM1197.17 325.709V326.231H1195.43V332H1194.8V326.231H1193.04V325.709H1197.17Z" fill="#271B2D"/>
<rect x="1268.04" y="67" width="78" height="238" rx="12" fill="#F3EDFF"/>
<path d="M1302.91 332H1302.28L1298.8 326.708V332H1298.17V325.709H1298.8L1302.28 330.992V325.709H1302.91V332ZM1307.16 332.063C1306.58 332.063 1306.05 331.928 1305.58 331.658C1305.11 331.382 1304.73 331.001 1304.45 330.515C1304.18 330.023 1304.05 329.468 1304.05 328.85C1304.05 328.232 1304.18 327.68 1304.45 327.194C1304.73 326.702 1305.11 326.321 1305.58 326.051C1306.05 325.775 1306.58 325.637 1307.16 325.637C1307.75 325.637 1308.28 325.775 1308.76 326.051C1309.23 326.321 1309.6 326.702 1309.87 327.194C1310.14 327.68 1310.28 328.232 1310.28 328.85C1310.28 329.468 1310.14 330.023 1309.87 330.515C1309.6 331.001 1309.23 331.382 1308.76 331.658C1308.28 331.928 1307.75 332.063 1307.16 332.063ZM1307.16 331.514C1307.63 331.514 1308.05 331.406 1308.42 331.19C1308.8 330.974 1309.09 330.665 1309.31 330.263C1309.52 329.855 1309.63 329.384 1309.63 328.85C1309.63 328.316 1309.52 327.848 1309.31 327.446C1309.09 327.044 1308.8 326.735 1308.42 326.519C1308.05 326.303 1307.63 326.195 1307.16 326.195C1306.7 326.195 1306.28 326.303 1305.9 326.519C1305.53 326.735 1305.24 327.044 1305.02 327.446C1304.81 327.848 1304.7 328.316 1304.7 328.85C1304.7 329.384 1304.81 329.855 1305.02 330.263C1305.24 330.665 1305.53 330.974 1305.9 331.19C1306.28 331.406 1306.7 331.514 1307.16 331.514ZM1316.42 325.709L1314.03 332H1313.31L1310.93 325.709H1311.61L1313.67 331.316L1315.75 325.709H1316.42Z" fill="#271B2D"/>
<rect x="1387" y="88" width="78" height="217" rx="12" fill="#F3EDFF"/>
<path d="M1419.67 325.709C1420.37 325.709 1420.96 325.835 1421.46 326.087C1421.96 326.339 1422.34 326.702 1422.6 327.176C1422.87 327.65 1423 328.214 1423 328.868C1423 329.516 1422.87 330.077 1422.6 330.551C1422.34 331.019 1421.96 331.379 1421.46 331.631C1420.96 331.877 1420.37 332 1419.67 332H1417.81V325.709H1419.67ZM1419.67 331.478C1420.55 331.478 1421.21 331.25 1421.67 330.794C1422.13 330.332 1422.36 329.69 1422.36 328.868C1422.36 328.04 1422.13 327.395 1421.67 326.933C1421.21 326.465 1420.55 326.231 1419.67 326.231H1418.44V331.478H1419.67ZM1424.79 326.222V328.571H1427.18V329.093H1424.79V331.478H1427.45V332H1424.16V325.7H1427.45V326.222H1424.79ZM1428.4 328.85C1428.4 328.232 1428.54 327.68 1428.81 327.194C1429.08 326.702 1429.44 326.321 1429.91 326.051C1430.38 325.775 1430.9 325.637 1431.48 325.637C1432.18 325.637 1432.78 325.805 1433.28 326.141C1433.78 326.471 1434.15 326.939 1434.38 327.545H1433.64C1433.46 327.119 1433.18 326.786 1432.81 326.546C1432.44 326.306 1432 326.186 1431.48 326.186C1431.02 326.186 1430.6 326.294 1430.23 326.51C1429.86 326.726 1429.57 327.038 1429.36 327.446C1429.15 327.848 1429.05 328.316 1429.05 328.85C1429.05 329.384 1429.15 329.852 1429.36 330.254C1429.57 330.656 1429.86 330.965 1430.23 331.181C1430.6 331.397 1431.02 331.505 1431.48 331.505C1432 331.505 1432.44 331.388 1432.81 331.154C1433.18 330.914 1433.46 330.584 1433.64 330.164H1434.38C1434.15 330.764 1433.78 331.229 1433.28 331.559C1432.77 331.889 1432.17 332.054 1431.48 332.054C1430.9 332.054 1430.38 331.919 1429.91 331.649C1429.44 331.373 1429.08 330.992 1428.81 330.506C1428.54 330.02 1428.4 329.468 1428.4 328.85Z" fill="#271B2D"/>
<defs>
<filter id="filter0_d_1054_5115" x="409" y="69" width="57" height="52" filterUnits="userSpaceOnUse" color-interpolation-filters="sRGB">
<feFlood flood-opacity="0" result="BackgroundImageFix"/>
<feColorMatrix in="SourceAlpha" type="matrix" values="0 0 0 0 0 0 0 0 0 0 0 0 0 0 0 0 0 0 127 0" result="hardAlpha"/>
<feOffset dy="12"/>
<feGaussianBlur stdDeviation="12"/>
<feComposite in2="hardAlpha" operator="out"/>
<feColorMatrix type="matrix" values="0 0 0 0 0.230539 0 0 0 0 0.221944 0 0 0 0 0.283333 0 0 0 0.12 0"/>
<feBlend mode="normal" in2="BackgroundImageFix" result="effect1_dropShadow_1054_5115"/>
<feBlend mode="normal" in="SourceGraphic" in2="effect1_dropShadow_1054_5115" result="shape"/>
</filter>
</defs>
</svg>
