<svg width="32" height="32" viewBox="0 0 32 32" fill="none" xmlns="http://www.w3.org/2000/svg">
<path d="M0 10.7333C0 6.93673 0 5.03843 0.750577 3.5935C1.38308 2.37588 2.37588 1.38308 3.5935 0.750577C5.03843 0 6.93673 0 10.7333 0H21.2667C25.0633 0 26.9616 0 28.4065 0.750577C29.6241 1.38308 30.6169 2.37588 31.2494 3.5935C32 5.03843 32 6.93673 32 10.7333V21.2667C32 25.0633 32 26.9616 31.2494 28.4065C30.6169 29.6241 29.6241 30.6169 28.4065 31.2494C26.9616 32 25.0633 32 21.2667 32H10.7333C6.93673 32 5.03843 32 3.5935 31.2494C2.37588 30.6169 1.38308 29.6241 0.750577 28.4065C0 26.9616 0 25.0633 0 21.2667V10.7333Z" fill="url(#paint0_linear_964_5172)"/>
<path d="M22.2219 20.4444L22.933 16H18.6663V12.8889C18.6663 11.6444 19.1108 10.6667 21.0663 10.6667H23.1108V6.57776C21.9552 6.39998 20.7108 6.22221 19.5552 6.22221C15.9108 6.22221 13.333 8.44443 13.333 12.4444V16H9.33301V20.4444H13.333V32C15.1108 32 16.8886 32 18.6663 32V20.4444H22.2219Z" fill="white"/>
<defs>
<linearGradient id="paint0_linear_964_5172" x1="16" y1="31.065" x2="16" y2="0" gradientUnits="userSpaceOnUse">
<stop stop-color="#0062E0"/>
<stop offset="1" stop-color="#19AFFF"/>
</linearGradient>
</defs>
</svg>
