<svg width="32" height="32" viewBox="0 0 32 32" fill="none" xmlns="http://www.w3.org/2000/svg">
<rect width="32" height="32" rx="16" fill="#F4FCF7"/>
<path d="M14.3538 19.0461L11.0598 15.7541C11.0137 15.7064 10.9585 15.6683 10.8975 15.6421C10.8365 15.6159 10.7709 15.6021 10.7045 15.6015C10.6382 15.6009 10.5723 15.6136 10.5109 15.6387C10.4494 15.6639 10.3936 15.701 10.3466 15.7479C10.2997 15.7949 10.2626 15.8507 10.2374 15.9121C10.2123 15.9736 10.1996 16.0394 10.2002 16.1058C10.2008 16.1722 10.2146 16.2378 10.2408 16.2988C10.267 16.3598 10.3051 16.415 10.3528 16.4611L14.3528 20.4611L22.3528 12.4611C22.4439 12.3668 22.4943 12.2405 22.4932 12.1094C22.492 11.9783 22.4395 11.8529 22.3467 11.7602C22.254 11.6675 22.1286 11.6149 21.9975 11.6138C21.8664 11.6126 21.7401 11.663 21.6458 11.7541L14.3528 19.0461H14.3538Z" fill="#33B469"/>
</svg>
