<svg width="32" height="32" viewBox="0 0 32 32" fill="none" xmlns="http://www.w3.org/2000/svg">
<path d="M0 10.7333C0 6.93673 0 5.03843 0.750577 3.5935C1.38308 2.37588 2.37588 1.38308 3.5935 0.750577C5.03843 0 6.93673 0 10.7333 0H21.2667C25.0633 0 26.9616 0 28.4065 0.750577C29.6241 1.38308 30.6169 2.37588 31.2494 3.5935C32 5.03843 32 6.93673 32 10.7333V21.2667C32 25.0633 32 26.9616 31.2494 28.4065C30.6169 29.6241 29.6241 30.6169 28.4065 31.2494C26.9616 32 25.0633 32 21.2667 32H10.7333C6.93673 32 5.03843 32 3.5935 31.2494C2.37588 30.6169 1.38308 29.6241 0.750577 28.4065C0 26.9616 0 25.0633 0 21.2667V10.7333Z" fill="white"/>
<path d="M0.25 10.7333C0.25 8.83084 0.250201 7.41925 0.342965 6.30223C0.43548 5.1882 0.618768 4.38958 0.97243 3.70875C1.58122 2.53679 2.53679 1.58122 3.70875 0.97243C4.38958 0.618768 5.1882 0.43548 6.30223 0.342965C7.41925 0.250201 8.83084 0.25 10.7333 0.25H21.2667C23.1692 0.25 24.5808 0.250201 25.6978 0.342965C26.8118 0.43548 27.6104 0.618768 28.2913 0.97243C29.4632 1.58122 30.4188 2.53679 31.0276 3.70875C31.3812 4.38958 31.5645 5.1882 31.657 6.30223C31.7498 7.41925 31.75 8.83084 31.75 10.7333V21.2667C31.75 23.1692 31.7498 24.5808 31.657 25.6978C31.5645 26.8118 31.3812 27.6104 31.0276 28.2913C30.4188 29.4632 29.4632 30.4188 28.2913 31.0276C27.6104 31.3812 26.8118 31.5645 25.6978 31.657C24.5808 31.7498 23.1692 31.75 21.2667 31.75H10.7333C8.83084 31.75 7.41925 31.7498 6.30223 31.657C5.1882 31.5645 4.38958 31.3812 3.70875 31.0276C2.53679 30.4188 1.58122 29.4632 0.97243 28.2913C0.618768 27.6104 0.43548 26.8118 0.342965 25.6978C0.250201 24.5808 0.25 23.1692 0.25 21.2667V10.7333Z" stroke="black" stroke-opacity="0.15" stroke-width="0.5"/>
<path fill-rule="evenodd" clip-rule="evenodd" d="M26.88 16.2576C26.88 15.454 26.8079 14.6813 26.674 13.9395H16V18.3234H22.0994C21.8367 19.7401 21.0382 20.9404 19.8379 21.744V24.5877H23.5006C25.6437 22.6146 26.88 19.7092 26.88 16.2576Z" fill="#4285F4"/>
<path fill-rule="evenodd" clip-rule="evenodd" d="M16 27.3334C19.06 27.3334 21.6254 26.3185 23.5006 24.5876L19.8379 21.744C18.823 22.424 17.5248 22.8258 16 22.8258C13.0481 22.8258 10.5497 20.8322 9.65844 18.1534H5.87207V21.0897C7.73692 24.7937 11.5697 27.3334 16 27.3334Z" fill="#34A853"/>
<path fill-rule="evenodd" clip-rule="evenodd" d="M9.65882 18.1534C9.43215 17.4734 9.30336 16.747 9.30336 16.0001C9.30336 15.2531 9.43215 14.5267 9.65882 13.8467V10.9104H5.87245C5.10487 12.4404 4.66699 14.1713 4.66699 16.0001C4.66699 17.8289 5.10487 19.5598 5.87245 21.0898L9.65882 18.1534Z" fill="#FBBC05"/>
<path fill-rule="evenodd" clip-rule="evenodd" d="M16 9.17429C17.6639 9.17429 19.1578 9.74611 20.3324 10.8691L23.583 7.61853C21.6203 5.78974 19.0548 4.66671 16 4.66671C11.5697 4.66671 7.73692 7.20641 5.87207 10.9104L9.65844 13.8467C10.5497 11.1679 13.0481 9.17429 16 9.17429Z" fill="#EA4335"/>
</svg>
