<svg width="77" height="77" viewBox="0 0 77 77" fill="none" xmlns="http://www.w3.org/2000/svg">
<path d="M76.6958 38.1965C76.6958 59.2919 59.5946 76.393 38.4993 76.393C17.4039 76.393 0.302734 59.2919 0.302734 38.1965C0.302734 17.1012 17.4039 0 38.4993 0C59.5946 0 76.6958 17.1012 76.6958 38.1965ZM7.25987 38.1965C7.25987 55.4496 21.2462 69.4359 38.4993 69.4359C55.7523 69.4359 69.7386 55.4496 69.7386 38.1965C69.7386 20.9435 55.7523 6.95714 38.4993 6.95714C21.2462 6.95714 7.25987 20.9435 7.25987 38.1965Z" fill="#C0E8D1"/>
<path d="M38.4993 2.4058C38.4993 1.07711 39.5775 -0.00789898 40.9035 0.0757102C48.7359 0.569549 56.2482 3.46684 62.4002 8.40188C69.1793 13.84 73.9012 21.4274 75.7864 29.9113C77.6715 38.3952 76.6071 47.2683 72.7689 55.0656C69.2858 62.1416 63.7074 67.9476 56.8212 71.7119C55.6553 72.3493 54.2191 71.823 53.6564 70.6193L52.7411 68.6614C52.1784 67.4577 52.7036 66.0338 53.8604 65.3802C59.3129 62.2992 63.7306 57.6382 66.5128 51.9861C69.6504 45.6122 70.5205 38.3589 68.9795 31.4238C67.4385 24.4887 63.5785 18.2864 58.037 13.841C53.1229 9.89899 47.147 7.54752 40.9028 7.06553C39.5781 6.96327 38.4993 5.8958 38.4993 4.56711V2.4058Z" fill="#33B469"/>
<path d="M26.99 40.4651V39.4306L31.0317 33.6327H32.6917V39.2743H33.8104V40.4651H32.6917V42.2935H31.3444V40.4651H26.99ZM31.4046 35.028L28.5658 39.2743H31.4046V35.028ZM34.9467 37.7947C34.9467 36.4073 35.1792 35.3247 35.6443 34.5469C36.1175 33.761 36.9274 33.368 38.0742 33.368C39.221 33.368 40.0269 33.761 40.492 34.5469C40.9652 35.3247 41.2017 36.4073 41.2017 37.7947C41.2017 39.1981 40.9652 40.2967 40.492 41.0906C40.0269 41.8765 39.221 42.2695 38.0742 42.2695C36.9274 42.2695 36.1175 41.8765 35.6443 41.0906C35.1792 40.2967 34.9467 39.1981 34.9467 37.7947ZM39.8545 37.7947C39.8545 37.1451 39.8104 36.5958 39.7222 36.1467C39.642 35.6976 39.4736 35.3328 39.217 35.0521C38.9603 34.7634 38.5794 34.619 38.0742 34.619C37.569 34.619 37.1881 34.7634 36.9314 35.0521C36.6748 35.3328 36.5024 35.6976 36.4142 36.1467C36.334 36.5958 36.2939 37.1451 36.2939 37.7947C36.2939 38.4683 36.334 39.0337 36.4142 39.4908C36.4944 39.9479 36.6628 40.3168 36.9194 40.5974C37.1841 40.8781 37.569 41.0185 38.0742 41.0185C38.5794 41.0185 38.9603 40.8781 39.217 40.5974C39.4816 40.3168 39.654 39.9479 39.7342 39.4908C39.8144 39.0337 39.8545 38.4683 39.8545 37.7947ZM42.4362 35.6415C42.4362 35.0561 42.6046 34.599 42.9414 34.2702C43.2863 33.9334 43.7273 33.765 44.2646 33.765C44.8019 33.765 45.239 33.9334 45.5758 34.2702C45.9206 34.599 46.093 35.0561 46.093 35.6415C46.093 36.2269 45.9206 36.688 45.5758 37.0248C45.239 37.3616 44.8019 37.5301 44.2646 37.5301C43.7273 37.5301 43.2863 37.3616 42.9414 37.0248C42.6046 36.688 42.4362 36.2269 42.4362 35.6415ZM49.7739 33.9214L44.9743 42.2935H43.6271L48.4266 33.9214H49.7739ZM44.2646 34.595C43.7594 34.595 43.5068 34.9438 43.5068 35.6415C43.5068 36.3472 43.7594 36.7001 44.2646 36.7001C44.5052 36.7001 44.6896 36.6159 44.8179 36.4474C44.9543 36.271 45.0224 36.0024 45.0224 35.6415C45.0224 34.9438 44.7698 34.595 44.2646 34.595ZM47.332 40.5614C47.332 39.9759 47.5004 39.5188 47.8372 39.1901C48.1821 38.8532 48.6231 38.6848 49.1604 38.6848C49.6897 38.6848 50.1227 38.8532 50.4595 39.1901C50.8044 39.5188 50.9768 39.9759 50.9768 40.5614C50.9768 41.1468 50.8044 41.6079 50.4595 41.9447C50.1227 42.2815 49.6897 42.4499 49.1604 42.4499C48.6231 42.4499 48.1821 42.2815 47.8372 41.9447C47.5004 41.6079 47.332 41.1468 47.332 40.5614ZM49.1484 39.5148C48.6432 39.5148 48.3906 39.8637 48.3906 40.5614C48.3906 41.259 48.6432 41.6079 49.1484 41.6079C49.6536 41.6079 49.9062 41.259 49.9062 40.5614C49.9062 39.8637 49.6536 39.5148 49.1484 39.5148Z" fill="#0F0F23"/>
</svg>
