<svg width="77" height="77" viewBox="0 0 77 77" fill="none" xmlns="http://www.w3.org/2000/svg">
<path d="M76.9985 38.1965C76.9985 59.2919 59.8973 76.393 38.802 76.393C17.7066 76.393 0.605469 59.2919 0.605469 38.1965C0.605469 17.1012 17.7066 0 38.802 0C59.8973 0 76.9985 17.1012 76.9985 38.1965ZM7.56261 38.1965C7.56261 55.4496 21.549 69.4359 38.802 69.4359C56.055 69.4359 70.0414 55.4496 70.0414 38.1965C70.0414 20.9435 56.055 6.95714 38.802 6.95714C21.549 6.95714 7.56261 20.9435 7.56261 38.1965Z" fill="#F3EDFF"/>
<path d="M38.802 2.4058C38.802 1.07711 39.8802 -0.00789654 41.2063 0.0757209C48.5009 0.535698 55.5292 3.08114 61.4429 7.43352C68.0041 12.2624 72.8495 19.0625 75.2714 26.8408C77.6934 34.619 77.5651 42.9678 74.9051 50.6679C72.2452 58.368 67.1931 65.016 60.4866 69.6409C53.7801 74.2658 45.7706 76.6254 37.6279 76.375C29.4851 76.1246 21.6358 73.2773 15.2261 68.249C8.81652 63.2208 4.18244 56.2749 2.00071 48.4259C0.0342702 41.3514 0.152928 33.8773 2.31552 26.8955C2.70865 25.6263 4.10604 25.004 5.34798 25.4763L7.36819 26.2444C8.61012 26.7166 9.2245 28.1043 8.84926 29.3789C7.20472 34.9651 7.15086 40.9172 8.71891 46.5585C10.5024 52.9746 14.2905 58.6525 19.53 62.7628C24.7695 66.8732 31.186 69.2007 37.8422 69.4054C44.4985 69.6101 51.0458 67.6813 56.528 63.9006C62.0102 60.12 66.14 54.6857 68.3144 48.3912C70.4887 42.0968 70.5936 35.2721 68.6138 28.9138C66.634 22.5555 62.6731 16.9968 57.3097 13.0494C52.5941 9.57879 47.0114 7.51371 41.2055 7.06553C39.8807 6.96327 38.802 5.8958 38.802 4.56711V2.4058Z" fill="#8347FC"/>
<path d="M29.0682 34.7754V33.5244H31.5702V42.2935H30.1869V34.7754H29.0682ZM38.1694 35.5573C38.0812 35.1884 37.9208 34.9117 37.6883 34.7273C37.4557 34.5429 37.1309 34.4506 36.7139 34.4506C36.0804 34.4506 35.6072 34.6952 35.2945 35.1844C34.9817 35.6656 34.8173 36.4675 34.8013 37.5902C35.0098 37.2373 35.3145 36.9647 35.7155 36.7722C36.1165 36.5798 36.5495 36.4835 37.0146 36.4835C37.5439 36.4835 38.009 36.5998 38.41 36.8324C38.819 37.0569 39.1357 37.3857 39.3603 37.8188C39.5928 38.2518 39.7091 38.769 39.7091 39.3705C39.7091 39.9318 39.5969 40.4331 39.3723 40.8741C39.1558 41.3152 38.831 41.664 38.398 41.9206C37.9649 42.1692 37.4437 42.2935 36.8342 42.2935C36.0082 42.2935 35.3586 42.1131 34.8855 41.7522C34.4204 41.3833 34.0916 40.8661 33.8991 40.2005C33.7147 39.5349 33.6225 38.7049 33.6225 37.7105C33.6225 34.7754 34.6569 33.3079 36.7259 33.3079C37.5279 33.3079 38.1574 33.5244 38.6145 33.9574C39.0796 34.3905 39.3523 34.9238 39.4325 35.5573H38.1694ZM36.7139 37.6383C36.2247 37.6383 35.8077 37.7867 35.4629 38.0834C35.1261 38.3721 34.9577 38.7931 34.9577 39.3464C34.9577 39.8998 35.114 40.3408 35.4268 40.6696C35.7476 40.9904 36.1926 41.1508 36.762 41.1508C37.2672 41.1508 37.6642 40.9944 37.9529 40.6816C38.2496 40.3689 38.398 39.9519 38.398 39.4306C38.398 38.8853 38.2536 38.4523 37.9649 38.1315C37.6842 37.8027 37.2672 37.6383 36.7139 37.6383ZM40.9553 35.6415C40.9553 35.0561 41.1237 34.599 41.4606 34.2702C41.8054 33.9334 42.2465 33.765 42.7837 33.765C43.321 33.765 43.7581 33.9334 44.0949 34.2702C44.4397 34.599 44.6122 35.0561 44.6122 35.6415C44.6122 36.2269 44.4397 36.688 44.0949 37.0248C43.7581 37.3616 43.321 37.5301 42.7837 37.5301C42.2465 37.5301 41.8054 37.3616 41.4606 37.0248C41.1237 36.688 40.9553 36.2269 40.9553 35.6415ZM48.293 33.9214L43.4935 42.2935H42.1462L46.9458 33.9214H48.293ZM42.7837 34.595C42.2785 34.595 42.0259 34.9438 42.0259 35.6415C42.0259 36.3472 42.2785 36.7001 42.7837 36.7001C43.0243 36.7001 43.2088 36.6159 43.3371 36.4474C43.4734 36.271 43.5416 36.0024 43.5416 35.6415C43.5416 34.9438 43.289 34.595 42.7837 34.595ZM45.8511 40.5614C45.8511 39.9759 46.0195 39.5188 46.3564 39.1901C46.7012 38.8532 47.1423 38.6848 47.6795 38.6848C48.2088 38.6848 48.6419 38.8532 48.9787 39.1901C49.3235 39.5188 49.4959 39.9759 49.4959 40.5614C49.4959 41.1468 49.3235 41.6079 48.9787 41.9447C48.6419 42.2815 48.2088 42.4499 47.6795 42.4499C47.1423 42.4499 46.7012 42.2815 46.3564 41.9447C46.0195 41.6079 45.8511 41.1468 45.8511 40.5614ZM47.6675 39.5148C47.1623 39.5148 46.9097 39.8637 46.9097 40.5614C46.9097 41.259 47.1623 41.6079 47.6675 41.6079C48.1727 41.6079 48.4253 41.259 48.4253 40.5614C48.4253 39.8637 48.1727 39.5148 47.6675 39.5148Z" fill="#0F0F23"/>
</svg>
