<svg width="84" height="84" viewBox="0 0 84 84" fill="none" xmlns="http://www.w3.org/2000/svg">
<path opacity="0.5" d="M31.6323 5.00105C30.9761 5.59298 30.2875 6.148 29.5698 6.66355C28.3281 7.49688 26.9323 8.07189 25.4656 8.36355C24.8281 8.48855 24.1615 8.54272 22.8323 8.64688C19.4948 8.91355 17.824 9.04689 16.4323 9.53855C14.841 10.1004 13.3958 11.0113 12.2025 12.2046C11.0092 13.3979 10.0983 14.8431 9.53646 16.4344C9.04479 17.8261 8.91146 19.4969 8.64479 22.8344C8.59934 23.7167 8.50475 24.5959 8.36146 25.4677C8.06979 26.9344 7.49479 28.3302 6.66146 29.5719C6.29896 30.1136 5.86563 30.6219 4.99896 31.6344C2.82812 34.1844 1.74063 35.4594 1.10313 36.7927C-0.367708 39.8761 -0.367708 43.4594 1.10313 46.5427C1.74063 47.8761 2.82812 49.1511 4.99896 51.7011C5.86563 52.7136 6.29896 53.2219 6.66146 53.7636C7.49479 55.0052 8.06979 56.4011 8.36146 57.8677C8.48646 58.5052 8.54062 59.1719 8.64479 60.5011C8.91146 63.8386 9.04479 65.5094 9.53646 66.9011C10.0983 68.4923 11.0092 69.9376 12.2025 71.1308C13.3958 72.3241 14.841 73.2351 16.4323 73.7969C17.824 74.2886 19.4948 74.4219 22.8323 74.6886C24.1615 74.7927 24.8281 74.8469 25.4656 74.9719C26.9323 75.2636 28.3281 75.8427 29.5698 76.6719C30.1115 77.0344 30.6198 77.4677 31.6323 78.3344C34.1823 80.5052 35.4573 81.5927 36.7906 82.2302C39.874 83.7011 43.4573 83.7011 46.5406 82.2302C47.874 81.5927 49.149 80.5052 51.699 78.3344C52.7115 77.4677 53.2198 77.0344 53.7615 76.6719C55.0031 75.8386 56.399 75.2636 57.8656 74.9719C58.5031 74.8469 59.1698 74.7927 60.499 74.6886C63.8365 74.4219 65.5073 74.2886 66.899 73.7969C68.4902 73.2351 69.9355 72.3241 71.1288 71.1308C72.322 69.9376 73.233 68.4923 73.7948 66.9011C74.2865 65.5094 74.4198 63.8386 74.6865 60.5011C74.7906 59.1719 74.8448 58.5052 74.9698 57.8677C75.2615 56.4011 75.8406 55.0052 76.6698 53.7636C77.0323 53.2219 77.4656 52.7136 78.3323 51.7011C80.5031 49.1511 81.5906 47.8761 82.2281 46.5427C83.699 43.4594 83.699 39.8761 82.2281 36.7927C81.5906 35.4594 80.5031 34.1844 78.3323 31.6344C77.7393 30.9791 77.1843 30.2905 76.6698 29.5719C75.8372 28.3297 75.2594 26.9348 74.9698 25.4677C74.8266 24.5959 74.732 23.7167 74.6865 22.8344C74.4198 19.4969 74.2865 17.8261 73.7948 16.4344C73.233 14.8431 72.322 13.3979 71.1288 12.2046C69.9355 11.0113 68.4902 10.1004 66.899 9.53855C65.5073 9.04689 63.8365 8.91355 60.499 8.64688C59.6166 8.60143 58.7375 8.50684 57.8656 8.36355C56.3986 8.07392 55.0036 7.4961 53.7615 6.66355C53.0437 6.14798 52.3552 5.59296 51.699 5.00105C49.149 2.83022 47.874 1.74272 46.5406 1.10522C45.0185 0.377638 43.3527 0 41.6656 0C39.9785 0 38.3128 0.377638 36.7906 1.10522C35.4573 1.74272 34.1823 2.83022 31.6323 5.00105Z" fill="#F1E2B6"/>
<path d="M45.7617 63.3375C48.5638 62.8434 51.2411 61.8023 53.6408 60.2735C56.0405 58.7447 58.1156 56.7582 59.7476 54.4275C61.3796 52.0968 62.5366 49.4674 63.1524 46.6895C63.7683 43.9117 63.8309 41.0397 63.3368 38.2376C62.8428 35.4356 61.8016 32.7582 60.2728 30.3585C58.744 27.9588 56.7576 25.8837 54.4268 24.2517C52.0961 22.6197 49.4667 21.4628 46.6889 20.8469C43.911 20.2311 41.039 20.1684 38.237 20.6625C35.4349 21.1566 32.7576 22.1977 30.3579 23.7265C27.9581 25.2553 25.8831 27.2418 24.2511 29.5725C22.6191 31.9033 21.4621 34.5326 20.8463 37.3105C20.2304 40.0884 20.1678 42.9603 20.6618 45.7624C21.1559 48.5645 22.1971 51.2418 23.7259 53.6415C25.2547 56.0412 27.2411 58.1163 29.5719 59.7483C31.9026 61.3803 34.532 62.5373 37.3098 63.1531C40.0877 63.7689 42.9597 63.8316 45.7617 63.3375L45.7617 63.3375Z" stroke="#D1A214" stroke-width="3"/>
<path d="M42 42L42 55" stroke="#D1A214" stroke-width="3" stroke-linecap="square"/>
<path d="M42 31.1667L42 29" stroke="#D1A214" stroke-width="3" stroke-linecap="square"/>
</svg>
