<svg width="32" height="32" viewBox="0 0 32 32" fill="none" xmlns="http://www.w3.org/2000/svg">
<path d="M0 10.7333C0 6.93673 0 5.03843 0.750577 3.5935C1.38308 2.37588 2.37588 1.38308 3.5935 0.750577C5.03843 0 6.93673 0 10.7333 0H21.2667C25.0633 0 26.9616 0 28.4065 0.750577C29.6241 1.38308 30.6169 2.37588 31.2494 3.5935C32 5.03843 32 6.93673 32 10.7333V21.2667C32 25.0633 32 26.9616 31.2494 28.4065C30.6169 29.6241 29.6241 30.6169 28.4065 31.2494C26.9616 32 25.0633 32 21.2667 32H10.7333C6.93673 32 5.03843 32 3.5935 31.2494C2.37588 30.6169 1.38308 29.6241 0.750577 28.4065C0 26.9616 0 25.0633 0 21.2667V10.7333Z" fill="#1265BF"/>
<path d="M7.18224 9.93773C8.71538 9.93773 9.95824 8.69487 9.95824 7.16173C9.95824 5.6286 8.71538 4.38574 7.18224 4.38574C5.6491 4.38574 4.40625 5.6286 4.40625 7.16173C4.40625 8.69487 5.6491 9.93773 7.18224 9.93773Z" fill="white"/>
<path d="M12.5006 11.9893H17.1013V14.0969C17.1013 14.0969 18.3498 11.5999 21.7466 11.5999C24.7768 11.5999 27.287 13.0927 27.287 17.6427V27.2373H22.5194V18.8053C22.5194 16.1212 21.0864 15.826 19.9945 15.826C17.7283 15.826 17.3404 17.7807 17.3404 19.1554V27.2373H12.5006V11.9893Z" fill="white"/>
<path d="M4.76234 11.9893H9.60215V27.2373H4.76234V11.9893Z" fill="white"/>
</svg>
