<svg width="141" height="30" viewBox="0 0 141 30" fill="none" xmlns="http://www.w3.org/2000/svg">
<path d="M22.6094 12.5469C22.6094 14.2448 22.4062 15.8021 22 17.2188C21.6042 18.625 20.9896 19.8438 20.1562 20.875C19.3229 21.9062 18.2656 22.7135 16.9844 23.2969L22.4844 29.4375H16.2812L12.0938 24.3125C12.0208 24.3125 11.9583 24.3125 11.9062 24.3125C11.8542 24.3125 11.7969 24.3125 11.7344 24.3125C9.86979 24.3125 8.25521 24.0365 6.89062 23.4844C5.52604 22.9219 4.39583 22.1198 3.5 21.0781C2.61458 20.0365 1.95312 18.7917 1.51562 17.3438C1.07812 15.8958 0.859375 14.2865 0.859375 12.5156C0.859375 10.151 1.24479 8.09375 2.01562 6.34375C2.79688 4.58333 3.99479 3.21875 5.60938 2.25C7.22396 1.28125 9.27604 0.796875 11.7656 0.796875C14.2448 0.796875 16.2812 1.28125 17.875 2.25C19.4792 3.21875 20.6667 4.58333 21.4375 6.34375C22.2188 8.10417 22.6094 10.1719 22.6094 12.5469ZM5.9375 12.5469C5.9375 14.1406 6.13542 15.5156 6.53125 16.6719C6.9375 17.8177 7.56771 18.7031 8.42188 19.3281C9.27604 19.9427 10.3802 20.25 11.7344 20.25C13.1094 20.25 14.224 19.9427 15.0781 19.3281C15.9323 18.7031 16.5521 17.8177 16.9375 16.6719C17.3333 15.5156 17.5312 14.1406 17.5312 12.5469C17.5312 10.151 17.0833 8.26562 16.1875 6.89062C15.2917 5.51562 13.8177 4.82812 11.7656 4.82812C10.401 4.82812 9.28646 5.14062 8.42188 5.76562C7.56771 6.38021 6.9375 7.26562 6.53125 8.42188C6.13542 9.56771 5.9375 10.9427 5.9375 12.5469ZM34.1719 6.20312C35.7865 6.20312 37.1771 6.51562 38.3438 7.14062C39.5104 7.75521 40.4115 8.65104 41.0469 9.82812C41.6823 11.0052 42 12.4427 42 14.1406V16.4531H30.7344C30.7865 17.7969 31.1875 18.8542 31.9375 19.625C32.6979 20.3854 33.75 20.7656 35.0938 20.7656C36.2083 20.7656 37.2292 20.651 38.1562 20.4219C39.0833 20.1927 40.0365 19.849 41.0156 19.3906V23.0781C40.151 23.5052 39.2448 23.8177 38.2969 24.0156C37.3594 24.2135 36.2188 24.3125 34.875 24.3125C33.125 24.3125 31.5729 23.9896 30.2188 23.3438C28.875 22.6979 27.8177 21.7135 27.0469 20.3906C26.2865 19.0677 25.9062 17.401 25.9062 15.3906C25.9062 13.349 26.25 11.651 26.9375 10.2969C27.6354 8.93229 28.6042 7.91146 29.8438 7.23438C31.0833 6.54688 32.526 6.20312 34.1719 6.20312ZM34.2031 9.59375C33.276 9.59375 32.5052 9.89062 31.8906 10.4844C31.2865 11.0781 30.9375 12.0104 30.8438 13.2812H37.5312C37.5208 12.5729 37.3906 11.9427 37.1406 11.3906C36.901 10.8385 36.5365 10.401 36.0469 10.0781C35.5677 9.75521 34.9531 9.59375 34.2031 9.59375ZM53.0781 6.20312C54.6927 6.20312 56.0833 6.51562 57.25 7.14062C58.4167 7.75521 59.3177 8.65104 59.9531 9.82812C60.5885 11.0052 60.9062 12.4427 60.9062 14.1406V16.4531H49.6406C49.6927 17.7969 50.0938 18.8542 50.8438 19.625C51.6042 20.3854 52.6562 20.7656 54 20.7656C55.1146 20.7656 56.1354 20.651 57.0625 20.4219C57.9896 20.1927 58.9427 19.849 59.9219 19.3906V23.0781C59.0573 23.5052 58.151 23.8177 57.2031 24.0156C56.2656 24.2135 55.125 24.3125 53.7812 24.3125C52.0312 24.3125 50.4792 23.9896 49.125 23.3438C47.7812 22.6979 46.724 21.7135 45.9531 20.3906C45.1927 19.0677 44.8125 17.401 44.8125 15.3906C44.8125 13.349 45.1562 11.651 45.8438 10.2969C46.5417 8.93229 47.5104 7.91146 48.75 7.23438C49.9896 6.54688 51.4323 6.20312 53.0781 6.20312ZM53.1094 9.59375C52.1823 9.59375 51.4115 9.89062 50.7969 10.4844C50.1927 11.0781 49.8438 12.0104 49.75 13.2812H56.4375C56.4271 12.5729 56.2969 11.9427 56.0469 11.3906C55.8073 10.8385 55.4427 10.401 54.9531 10.0781C54.474 9.75521 53.8594 9.59375 53.1094 9.59375ZM68.9375 24L62.2812 6.53125H67.2656L70.6406 16.4844C70.8281 17.0677 70.974 17.6823 71.0781 18.3281C71.1927 18.974 71.2708 19.5521 71.3125 20.0625H71.4375C71.4688 19.5104 71.5417 18.9219 71.6562 18.2969C71.7812 17.6719 71.9427 17.0677 72.1406 16.4844L75.5 6.53125H80.4844L73.8281 24H68.9375ZM99.0312 6.53125V24H95.375L94.7344 21.7656H94.4844C94.1094 22.3594 93.6406 22.8438 93.0781 23.2188C92.5156 23.5938 91.8958 23.8698 91.2188 24.0469C90.5417 24.224 89.8385 24.3125 89.1094 24.3125C87.8594 24.3125 86.7708 24.0938 85.8438 23.6562C84.9167 23.2083 84.1927 22.5156 83.6719 21.5781C83.1615 20.6406 82.9062 19.4219 82.9062 17.9219V6.53125H87.6719V16.7344C87.6719 17.9844 87.8958 18.9271 88.3438 19.5625C88.7917 20.1979 89.5052 20.5156 90.4844 20.5156C91.4531 20.5156 92.2135 20.2969 92.7656 19.8594C93.3177 19.4115 93.7031 18.7604 93.9219 17.9062C94.151 17.0417 94.2656 15.9896 94.2656 14.75V6.53125H99.0312ZM124.547 6.20312C126.526 6.20312 128.021 6.71354 129.031 7.73438C130.052 8.74479 130.562 10.3698 130.562 12.6094V24H125.781V13.7969C125.781 12.5469 125.568 11.6042 125.141 10.9688C124.714 10.3333 124.052 10.0156 123.156 10.0156C121.896 10.0156 121 10.4688 120.469 11.375C119.938 12.2708 119.672 13.5573 119.672 15.2344V24H114.906V13.7969C114.906 12.9635 114.812 12.2656 114.625 11.7031C114.438 11.1406 114.151 10.7188 113.766 10.4375C113.38 10.1562 112.885 10.0156 112.281 10.0156C111.396 10.0156 110.698 10.2396 110.188 10.6875C109.688 11.125 109.328 11.776 109.109 12.6406C108.901 13.4948 108.797 14.5417 108.797 15.7812V24H104.031V6.53125H107.672L108.312 8.76562H108.578C108.932 8.16146 109.375 7.67188 109.906 7.29688C110.448 6.92188 111.042 6.64583 111.688 6.46875C112.333 6.29167 112.99 6.20312 113.656 6.20312C114.938 6.20312 116.021 6.41146 116.906 6.82812C117.802 7.24479 118.49 7.89062 118.969 8.76562H119.391C119.911 7.86979 120.646 7.21875 121.594 6.8125C122.552 6.40625 123.536 6.20312 124.547 6.20312ZM134.797 21.7656C134.797 20.7865 135.062 20.099 135.594 19.7031C136.135 19.3073 136.786 19.1094 137.547 19.1094C138.286 19.1094 138.922 19.3073 139.453 19.7031C139.995 20.099 140.266 20.7865 140.266 21.7656C140.266 22.7031 139.995 23.3802 139.453 23.7969C138.922 24.2135 138.286 24.4219 137.547 24.4219C136.786 24.4219 136.135 24.2135 135.594 23.7969C135.062 23.3802 134.797 22.7031 134.797 21.7656Z" fill="white"/>
</svg>
