<svg width="84" height="84" viewBox="0 0 84 84" fill="none" xmlns="http://www.w3.org/2000/svg">
<path opacity="0.5" d="M31.6323 5.00105C30.9761 5.59298 30.2875 6.148 29.5698 6.66355C28.3281 7.49688 26.9323 8.07189 25.4656 8.36355C24.8281 8.48855 24.1615 8.54272 22.8323 8.64688C19.4948 8.91355 17.824 9.04689 16.4323 9.53855C14.841 10.1004 13.3958 11.0113 12.2025 12.2046C11.0092 13.3979 10.0983 14.8431 9.53646 16.4344C9.04479 17.8261 8.91146 19.4969 8.64479 22.8344C8.59934 23.7167 8.50475 24.5959 8.36146 25.4677C8.06979 26.9344 7.49479 28.3302 6.66146 29.5719C6.29896 30.1136 5.86563 30.6219 4.99896 31.6344C2.82812 34.1844 1.74063 35.4594 1.10313 36.7927C-0.367708 39.8761 -0.367708 43.4594 1.10313 46.5427C1.74063 47.8761 2.82812 49.1511 4.99896 51.7011C5.86563 52.7136 6.29896 53.2219 6.66146 53.7636C7.49479 55.0052 8.06979 56.4011 8.36146 57.8677C8.48646 58.5052 8.54062 59.1719 8.64479 60.5011C8.91146 63.8386 9.04479 65.5094 9.53646 66.9011C10.0983 68.4923 11.0092 69.9376 12.2025 71.1308C13.3958 72.3241 14.841 73.2351 16.4323 73.7969C17.824 74.2886 19.4948 74.4219 22.8323 74.6886C24.1615 74.7927 24.8281 74.8469 25.4656 74.9719C26.9323 75.2636 28.3281 75.8427 29.5698 76.6719C30.1115 77.0344 30.6198 77.4677 31.6323 78.3344C34.1823 80.5052 35.4573 81.5927 36.7906 82.2302C39.874 83.7011 43.4573 83.7011 46.5406 82.2302C47.874 81.5927 49.149 80.5052 51.699 78.3344C52.7115 77.4677 53.2198 77.0344 53.7615 76.6719C55.0031 75.8386 56.399 75.2636 57.8656 74.9719C58.5031 74.8469 59.1698 74.7927 60.499 74.6886C63.8365 74.4219 65.5073 74.2886 66.899 73.7969C68.4902 73.2351 69.9355 72.3241 71.1288 71.1308C72.322 69.9376 73.233 68.4923 73.7948 66.9011C74.2865 65.5094 74.4198 63.8386 74.6865 60.5011C74.7906 59.1719 74.8448 58.5052 74.9698 57.8677C75.2615 56.4011 75.8406 55.0052 76.6698 53.7636C77.0323 53.2219 77.4656 52.7136 78.3323 51.7011C80.5031 49.1511 81.5906 47.8761 82.2281 46.5427C83.699 43.4594 83.699 39.8761 82.2281 36.7927C81.5906 35.4594 80.5031 34.1844 78.3323 31.6344C77.7393 30.9791 77.1843 30.2905 76.6698 29.5719C75.8372 28.3297 75.2594 26.9348 74.9698 25.4677C74.8266 24.5959 74.732 23.7167 74.6865 22.8344C74.4198 19.4969 74.2865 17.8261 73.7948 16.4344C73.233 14.8431 72.322 13.3979 71.1288 12.2046C69.9355 11.0113 68.4902 10.1004 66.899 9.53855C65.5073 9.04689 63.8365 8.91355 60.499 8.64688C59.6166 8.60143 58.7375 8.50684 57.8656 8.36355C56.3986 8.07392 55.0036 7.4961 53.7615 6.66355C53.0437 6.14798 52.3552 5.59296 51.699 5.00105C49.149 2.83022 47.874 1.74272 46.5406 1.10522C45.0185 0.377638 43.3527 0 41.6656 0C39.9785 0 38.3128 0.377638 36.7906 1.10522C35.4573 1.74272 34.1823 2.83022 31.6323 5.00105Z" fill="#F5B6B6"/>
<path d="M42 47.1562C41.2312 47.1562 40.5938 46.5188 40.5938 45.75V36.375C40.5938 35.6062 41.2312 34.9688 42 34.9688C42.7687 34.9688 43.4062 35.6062 43.4062 36.375V45.75C43.4062 46.5188 42.7687 47.1562 42 47.1562Z" fill="#E01414"/>
<path d="M42 53.2503C41.8875 53.2503 41.7563 53.2315 41.625 53.2128C41.5125 53.194 41.4 53.1565 41.2875 53.1003C41.175 53.0628 41.0625 53.0065 40.95 52.9315C40.8562 52.8565 40.7625 52.7815 40.6687 52.7065C40.3312 52.3503 40.125 51.8628 40.125 51.3753C40.125 50.8878 40.3312 50.4003 40.6687 50.044C40.7625 49.969 40.8562 49.894 40.95 49.819C41.0625 49.744 41.175 49.6878 41.2875 49.6503C41.4 49.594 41.5125 49.5565 41.625 49.5378C41.8688 49.4815 42.1312 49.4815 42.3562 49.5378C42.4875 49.5565 42.6 49.594 42.7125 49.6503C42.825 49.6878 42.9375 49.744 43.05 49.819C43.1438 49.894 43.2375 49.969 43.3313 50.044C43.6688 50.4003 43.875 50.8878 43.875 51.3753C43.875 51.8628 43.6688 52.3503 43.3313 52.7065C43.2375 52.7815 43.1438 52.8565 43.05 52.9315C42.9375 53.0065 42.825 53.0628 42.7125 53.1003C42.6 53.1565 42.4875 53.194 42.3562 53.2128C42.2437 53.2315 42.1125 53.2503 42 53.2503Z" fill="#E01414"/>
<path d="M53.2618 62H30.7305C27.1055 62 24.3355 60.6024 22.9227 58.0827C21.5284 55.563 21.7143 52.315 23.4804 48.9488L34.746 27.4921C36.605 23.9488 39.1705 22 41.9962 22C44.8219 22 47.3873 23.9488 49.2463 27.4921L60.5119 48.9685C62.278 52.3346 62.4825 55.563 61.0696 58.1024C59.6568 60.6024 56.8869 62 53.2618 62ZM41.9962 24.9528C40.2487 24.9528 38.5384 26.3701 37.1813 28.9291L25.9343 50.4055C24.6701 52.8071 24.4657 55.0118 25.3394 56.6063C26.2131 58.2008 28.1465 59.0669 30.7491 59.0669H53.2804C55.883 59.0669 57.7978 58.2008 58.6901 56.6063C59.5824 55.0118 59.3593 52.8268 58.0952 50.4055L46.811 28.9291C45.4539 26.3701 43.7436 24.9528 41.9962 24.9528Z" fill="#E01414"/>
</svg>
