<svg width="25" height="25" viewBox="0 0 25 25" fill="none" xmlns="http://www.w3.org/2000/svg">
<path d="M12.87 3.09116L21.87 6.69113C22.22 6.83113 22.5 7.25113 22.5 7.62113V10.9411C22.5 11.4911 22.05 11.9411 21.5 11.9411H3.5C2.95 11.9411 2.5 11.4911 2.5 10.9411V7.62113C2.5 7.25113 2.78 6.83113 3.13 6.69113L12.13 3.09116C12.33 3.01116 12.67 3.01116 12.87 3.09116Z" stroke="#3D3544" stroke-width="1.5" stroke-miterlimit="10" stroke-linecap="round" stroke-linejoin="round"/>
<path d="M22.5 22.9411H2.5V19.9411C2.5 19.3911 2.95 18.9411 3.5 18.9411H21.5C22.05 18.9411 22.5 19.3911 22.5 19.9411V22.9411Z" stroke="#3D3544" stroke-width="1.5" stroke-miterlimit="10" stroke-linecap="round" stroke-linejoin="round"/>
<path d="M4.5 18.9411V11.9411" stroke="#3D3544" stroke-width="1.5" stroke-miterlimit="10" stroke-linecap="round" stroke-linejoin="round"/>
<path d="M8.5 18.9411V11.9411" stroke="#3D3544" stroke-width="1.5" stroke-miterlimit="10" stroke-linecap="round" stroke-linejoin="round"/>
<path d="M12.5 18.9411V11.9411" stroke="#3D3544" stroke-width="1.5" stroke-miterlimit="10" stroke-linecap="round" stroke-linejoin="round"/>
<path d="M16.5 18.9411V11.9411" stroke="#3D3544" stroke-width="1.5" stroke-miterlimit="10" stroke-linecap="round" stroke-linejoin="round"/>
<path d="M20.5 18.9411V11.9411" stroke="#3D3544" stroke-width="1.5" stroke-miterlimit="10" stroke-linecap="round" stroke-linejoin="round"/>
<path d="M1.5 22.9411H23.5" stroke="#3D3544" stroke-width="1.5" stroke-miterlimit="10" stroke-linecap="round" stroke-linejoin="round"/>
<path d="M12.5 9.44113C13.3284 9.44113 14 8.76956 14 7.94113C14 7.1127 13.3284 6.44113 12.5 6.44113C11.6716 6.44113 11 7.1127 11 7.94113C11 8.76956 11.6716 9.44113 12.5 9.44113Z" stroke="#3D3544" stroke-width="1.5" stroke-miterlimit="10" stroke-linecap="round" stroke-linejoin="round"/>
</svg>
