<svg width="100" height="100" viewBox="0 0 100 100" fill="none" xmlns="http://www.w3.org/2000/svg">
<path opacity="0.5" d="M39.9663 13.3331C39.3101 13.925 38.6215 14.48 37.9038 14.9956C36.6621 15.8289 35.2663 16.4039 33.7996 16.6956C33.1621 16.8206 32.4954 16.8747 31.1663 16.9789C27.8288 17.2456 26.1579 17.3789 24.7663 17.8706C23.175 18.4324 21.7297 19.3434 20.5365 20.5366C19.3432 21.7299 18.4323 23.1752 17.8704 24.7664C17.3788 26.1581 17.2454 27.8289 16.9788 31.1664C16.9333 32.0488 16.8387 32.9279 16.6954 33.7998C16.4038 35.2664 15.8288 36.6623 14.9954 37.9039C14.6329 38.4456 14.1996 38.9539 13.3329 39.9664C11.1621 42.5164 10.0746 43.7914 9.43711 45.1247C7.96628 48.2081 7.96628 51.7914 9.43711 54.8748C10.0746 56.2081 11.1621 57.4831 13.3329 60.0331C14.1996 61.0456 14.6329 61.5539 14.9954 62.0956C15.8288 63.3372 16.4038 64.7331 16.6954 66.1998C16.8204 66.8373 16.8746 67.5039 16.9788 68.8331C17.2454 72.1706 17.3788 73.8414 17.8704 75.2331C18.4323 76.8243 19.3432 78.2696 20.5365 79.4629C21.7297 80.6561 23.175 81.5671 24.7663 82.1289C26.1579 82.6206 27.8288 82.7539 31.1663 83.0206C32.4954 83.1247 33.1621 83.1789 33.7996 83.3039C35.2663 83.5956 36.6621 84.1748 37.9038 85.0039C38.4454 85.3664 38.9538 85.7998 39.9663 86.6664C42.5163 88.8372 43.7913 89.9248 45.1246 90.5623C48.2079 92.0331 51.7913 92.0331 54.8746 90.5623C56.2079 89.9248 57.4829 88.8372 60.0329 86.6664C61.0454 85.7998 61.5538 85.3664 62.0954 85.0039C63.3371 84.1706 64.7329 83.5956 66.1996 83.3039C66.8371 83.1789 67.5038 83.1247 68.833 83.0206C72.1704 82.7539 73.8413 82.6206 75.2329 82.1289C76.8242 81.5671 78.2695 80.6561 79.4627 79.4629C80.656 78.2696 81.567 76.8243 82.1288 75.2331C82.6205 73.8414 82.7538 72.1706 83.0204 68.8331C83.1246 67.5039 83.1788 66.8373 83.3038 66.1998C83.5955 64.7331 84.1746 63.3372 85.0038 62.0956C85.3663 61.5539 85.7996 61.0456 86.6663 60.0331C88.8371 57.4831 89.9246 56.2081 90.5621 54.8748C92.033 51.7914 92.033 48.2081 90.5621 45.1247C89.9246 43.7914 88.8371 42.5164 86.6663 39.9664C86.0733 39.3111 85.5182 38.6225 85.0038 37.9039C84.1712 36.6618 83.5934 35.2668 83.3038 33.7998C83.1606 32.9279 83.066 32.0488 83.0204 31.1664C82.7538 27.8289 82.6205 26.1581 82.1288 24.7664C81.567 23.1752 80.656 21.7299 79.4627 20.5366C78.2695 19.3434 76.8242 18.4324 75.2329 17.8706C73.8413 17.3789 72.1704 17.2456 68.833 16.9789C67.9506 16.9335 67.0714 16.8389 66.1996 16.6956C64.7326 16.4059 63.3376 15.8281 62.0954 14.9956C61.3777 14.48 60.6891 13.925 60.0329 13.3331C57.4829 11.1622 56.2079 10.0747 54.8746 9.43725C53.3525 8.70967 51.6867 8.33203 49.9996 8.33203C48.3125 8.33203 46.6468 8.70967 45.1246 9.43725C43.7913 10.0747 42.5163 11.1622 39.9663 13.3331Z" fill="#D9C6FE"/>
<path d="M68.2246 41.096C68.8426 40.4564 69.1846 39.5996 69.177 38.7102C69.1693 37.8208 68.8126 36.97 68.1837 36.3411C67.5548 35.7121 66.704 35.3554 65.8146 35.3478C64.9252 35.3401 64.0684 35.6822 63.4287 36.3002L43.2204 56.5085L36.5746 49.8627C35.9349 49.2447 35.0781 48.9026 34.1887 48.9103C33.2993 48.9179 32.4485 49.2746 31.8196 49.9036C31.1906 50.5325 30.8339 51.3833 30.8263 52.2727C30.8187 53.1621 31.1607 54.0189 31.7787 54.6585L40.8204 63.7002C41.4563 64.3348 42.3179 64.6912 43.2162 64.6912C44.1146 64.6912 44.9762 64.3348 45.6121 63.7002L68.2246 41.096Z" fill="#8347FC"/>
</svg>
