<svg width="290" height="112" viewBox="0 0 290 112" fill="none" xmlns="http://www.w3.org/2000/svg">
<path opacity="0.2" fill-rule="evenodd" clip-rule="evenodd" d="M281.5 46.5C281.677 46.5 281.851 46.5469 282.003 46.636C282.156 46.7251 282.283 46.8531 282.37 47.007L284.684 51.085L289.211 52.061C289.382 52.0979 289.54 52.1788 289.669 52.2957C289.799 52.4126 289.896 52.5615 289.95 52.7274C290.005 52.8934 290.014 53.0707 289.979 53.2417C289.944 53.4127 289.864 53.5714 289.748 53.702L286.642 57.204L287.13 61.897C287.148 62.072 287.12 62.2487 287.048 62.4092C286.976 62.5697 286.863 62.7084 286.72 62.8112C286.577 62.9141 286.41 62.9775 286.235 62.995C286.06 63.0125 285.883 62.9835 285.723 62.911L281.5 60.997L277.277 62.911C277.117 62.9835 276.94 63.0125 276.765 62.995C276.59 62.9775 276.423 62.9141 276.28 62.8112C276.137 62.7084 276.024 62.5697 275.952 62.4092C275.88 62.2487 275.852 62.072 275.87 61.897L276.358 57.204L273.252 53.702C273.136 53.5714 273.056 53.4127 273.021 53.2417C272.986 53.0707 272.995 52.8934 273.05 52.7274C273.104 52.5615 273.201 52.4126 273.331 52.2957C273.46 52.1788 273.618 52.0979 273.789 52.061L278.316 51.085L280.63 47.007C280.717 46.8531 280.844 46.7251 280.997 46.636C281.149 46.5469 281.323 46.5 281.5 46.5ZM281.5 49.526L279.834 52.462C279.764 52.5846 279.67 52.691 279.556 52.7744C279.443 52.8578 279.313 52.9163 279.175 52.946L275.884 53.656L278.146 56.206C278.238 56.3099 278.307 56.4319 278.35 56.5641C278.392 56.6963 278.407 56.8359 278.392 56.974L278.04 60.37L281.087 58.989C281.217 58.9302 281.358 58.8997 281.5 58.8997C281.642 58.8997 281.783 58.9302 281.913 58.989L284.96 60.369L284.607 56.973C284.593 56.8352 284.608 56.6959 284.65 56.5641C284.693 56.4322 284.762 56.3106 284.854 56.207L287.116 53.656L283.825 52.946C283.687 52.9164 283.557 52.858 283.443 52.7746C283.329 52.6912 283.235 52.5847 283.165 52.462L281.5 49.526Z" fill="black"/>
<path fill-rule="evenodd" clip-rule="evenodd" d="M280 46C280.088 46 280.175 46.0233 280.252 46.0678C280.328 46.1122 280.391 46.1761 280.435 46.253L282.86 50.527L287.605 51.55C287.69 51.5683 287.769 51.6086 287.834 51.6669C287.899 51.7253 287.948 51.7996 287.975 51.8825C288.003 51.9655 288.008 52.0541 287.99 52.1396C287.972 52.2251 287.933 52.3046 287.875 52.37L284.622 56.037L285.132 60.948C285.141 61.0354 285.127 61.1237 285.091 61.2039C285.055 61.2841 284.998 61.3534 284.927 61.4048C284.856 61.4562 284.772 61.4879 284.685 61.4967C284.597 61.5055 284.509 61.4911 284.429 61.455L280 59.448L275.571 61.455C275.491 61.4914 275.403 61.506 275.315 61.4973C275.227 61.4886 275.144 61.4569 275.072 61.4055C275.001 61.354 274.944 61.2846 274.908 61.2043C274.872 61.124 274.858 61.0356 274.867 60.948L275.377 56.038L272.127 52.37C272.069 52.3046 272.029 52.2253 272.012 52.1398C271.994 52.0544 271.999 51.9658 272.026 51.8829C272.054 51.8 272.102 51.7256 272.167 51.6672C272.232 51.6088 272.311 51.5684 272.396 51.55L277.14 50.527L279.565 46.253C279.609 46.1761 279.672 46.1122 279.748 46.0678C279.825 46.0233 279.912 46 280 46ZM280 47.513L277.9 51.215C277.865 51.2763 277.818 51.3296 277.761 51.3713C277.704 51.413 277.639 51.4422 277.57 51.457L273.442 52.347L276.272 55.538C276.318 55.59 276.353 55.6509 276.374 55.7171C276.395 55.7832 276.402 55.853 276.395 55.922L275.952 60.185L279.794 58.445C279.859 58.4157 279.929 58.4006 280 58.4006C280.071 58.4006 280.141 58.4157 280.206 58.445L284.048 60.185L283.605 55.922C283.598 55.853 283.605 55.7832 283.626 55.7171C283.647 55.6509 283.682 55.59 283.728 55.538L286.558 52.347L282.43 51.457C282.361 51.4422 282.296 51.413 282.239 51.3713C282.182 51.3296 282.135 51.2763 282.1 51.215L280 47.513Z" fill="black"/>
<path opacity="0.2" fill-rule="evenodd" clip-rule="evenodd" d="M281.5 46.5C281.677 46.5 281.851 46.5469 282.003 46.636C282.156 46.7251 282.283 46.8531 282.37 47.007L284.684 51.085L289.211 52.061C289.382 52.0979 289.54 52.1788 289.669 52.2957C289.799 52.4126 289.896 52.5615 289.95 52.7274C290.005 52.8934 290.014 53.0707 289.979 53.2417C289.944 53.4127 289.864 53.5714 289.748 53.702L286.642 57.204L287.13 61.897C287.148 62.072 287.12 62.2487 287.048 62.4092C286.976 62.5697 286.863 62.7084 286.72 62.8112C286.577 62.9141 286.41 62.9775 286.235 62.995C286.06 63.0125 285.883 62.9835 285.723 62.911L281.5 60.997L277.277 62.911C277.117 62.9835 276.94 63.0125 276.765 62.995C276.59 62.9775 276.423 62.9141 276.28 62.8112C276.137 62.7084 276.024 62.5697 275.952 62.4092C275.88 62.2487 275.852 62.072 275.87 61.897L276.358 57.204L273.252 53.702C273.136 53.5714 273.056 53.4127 273.021 53.2417C272.986 53.0707 272.995 52.8934 273.05 52.7274C273.104 52.5615 273.201 52.4126 273.331 52.2957C273.46 52.1788 273.618 52.0979 273.789 52.061L278.316 51.085L280.63 47.007C280.717 46.8531 280.844 46.7251 280.997 46.636C281.149 46.5469 281.323 46.5 281.5 46.5ZM281.5 49.526L279.834 52.462C279.764 52.5846 279.67 52.691 279.556 52.7744C279.443 52.8578 279.313 52.9163 279.175 52.946L275.884 53.656L278.146 56.206C278.238 56.3099 278.307 56.4319 278.35 56.5641C278.392 56.6963 278.407 56.8359 278.392 56.974L278.04 60.37L281.087 58.989C281.217 58.9302 281.358 58.8997 281.5 58.8997C281.642 58.8997 281.783 58.9302 281.913 58.989L284.96 60.369L284.607 56.973C284.593 56.8352 284.608 56.6959 284.65 56.5641C284.693 56.4322 284.762 56.3106 284.854 56.207L287.116 53.656L283.825 52.946C283.687 52.9164 283.557 52.858 283.443 52.7746C283.329 52.6912 283.235 52.5847 283.165 52.462L281.5 49.526Z" fill="#92B9ED"/>
<path fill-rule="evenodd" clip-rule="evenodd" d="M280 46C280.088 46 280.175 46.0233 280.252 46.0678C280.328 46.1122 280.391 46.1761 280.435 46.253L282.86 50.527L287.605 51.55C287.69 51.5683 287.769 51.6086 287.834 51.6669C287.899 51.7253 287.948 51.7996 287.975 51.8825C288.003 51.9655 288.008 52.0541 287.99 52.1396C287.972 52.2251 287.933 52.3046 287.875 52.37L284.622 56.037L285.132 60.948C285.141 61.0354 285.127 61.1237 285.091 61.2039C285.055 61.2841 284.998 61.3534 284.927 61.4048C284.856 61.4562 284.772 61.4879 284.685 61.4967C284.597 61.5055 284.509 61.4911 284.429 61.455L280 59.448L275.571 61.455C275.491 61.4914 275.403 61.506 275.315 61.4973C275.227 61.4886 275.144 61.4569 275.072 61.4055C275.001 61.354 274.944 61.2846 274.908 61.2043C274.872 61.124 274.858 61.0356 274.867 60.948L275.377 56.038L272.127 52.37C272.069 52.3046 272.029 52.2253 272.012 52.1398C271.994 52.0544 271.999 51.9658 272.026 51.8829C272.054 51.8 272.102 51.7256 272.167 51.6672C272.232 51.6088 272.311 51.5684 272.396 51.55L277.14 50.527L279.565 46.253C279.609 46.1761 279.672 46.1122 279.748 46.0678C279.825 46.0233 279.912 46 280 46ZM280 47.513L277.9 51.215C277.865 51.2763 277.818 51.3296 277.761 51.3713C277.704 51.413 277.639 51.4422 277.57 51.457L273.442 52.347L276.272 55.538C276.318 55.59 276.353 55.6509 276.374 55.7171C276.395 55.7832 276.402 55.853 276.395 55.922L275.952 60.185L279.794 58.445C279.859 58.4157 279.929 58.4006 280 58.4006C280.071 58.4006 280.141 58.4157 280.206 58.445L284.048 60.185L283.605 55.922C283.598 55.853 283.605 55.7832 283.626 55.7171C283.647 55.6509 283.682 55.59 283.728 55.538L286.558 52.347L282.43 51.457C282.361 51.4422 282.296 51.413 282.239 51.3713C282.182 51.3296 282.135 51.2763 282.1 51.215L280 47.513Z" fill="#92B9ED"/>
<path d="M17.1283 95.525C17.1367 95.3416 17.4383 95.2683 17.5283 95.4283C17.9517 96.1783 18.6717 97.28 19.4883 97.7816C20.305 98.2816 21.615 98.425 22.475 98.4616C22.6583 98.47 22.73 98.7716 22.57 98.8616C21.82 99.285 20.72 100.005 20.2183 100.822C19.7167 101.638 19.575 102.948 19.5383 103.808C19.53 103.992 19.2267 104.063 19.1383 103.903C18.715 103.153 17.995 102.053 17.1767 101.552C16.36 101.05 15.05 100.908 14.1917 100.872C14.0083 100.863 13.935 100.56 14.095 100.472C14.845 100.048 15.9467 99.3283 16.4483 98.51C16.9483 97.6933 17.0917 96.3833 17.1283 95.525Z" fill="#AC84FD"/>
<path opacity="0.5" d="M30.82 93.8582C30.805 93.6749 30.4867 93.5982 30.39 93.7549C30.1033 94.2266 29.69 94.7932 29.2283 95.0766C28.7683 95.3599 28.075 95.4699 27.525 95.5132C27.3417 95.5266 27.265 95.8466 27.4217 95.9416C27.8917 96.2282 28.46 96.6416 28.7433 97.1032C29.0267 97.5632 29.1367 98.2582 29.18 98.8082C29.1933 98.9916 29.5133 99.0666 29.6083 98.9099C29.895 98.4399 30.3083 97.8716 30.77 97.5899C31.23 97.3066 31.925 97.1949 32.475 97.1532C32.6583 97.1382 32.7333 96.8199 32.5767 96.7232C32.1067 96.4366 31.5383 96.0232 31.2567 95.5616C30.9733 95.1016 30.8617 94.4082 30.82 93.8582Z" fill="#AC84FD"/>
<path d="M24.505 74.6699L24.1017 74.1599C22.54 72.1883 21.76 71.2016 20.8517 71.3466C19.945 71.4933 19.51 72.6733 18.6417 75.0349L18.4167 75.6449C18.17 76.3166 18.0467 76.6516 17.81 76.8983C17.5733 77.1449 17.25 77.2733 16.6033 77.5316L16.015 77.7666L15.6033 77.9333C13.6033 78.7333 12.5967 79.1883 12.4667 80.0716C12.33 81.0133 13.2833 81.8199 15.19 83.4316L15.6833 83.8483C16.2267 84.3066 16.4967 84.5366 16.6517 84.8483C16.8083 85.1599 16.83 85.5199 16.8733 86.2399L16.9133 86.8949C17.07 89.4283 17.1467 90.6949 17.9717 91.1316C18.795 91.5683 19.8183 90.8866 21.865 89.5216L22.395 89.1683C22.9767 88.7799 23.2667 88.5849 23.6 88.5333C23.9333 88.4799 24.2683 88.5733 24.9433 88.7599L25.555 88.9299C27.9267 89.5866 29.1117 89.9149 29.7567 89.2433C30.4033 88.5716 30.0817 87.3433 29.44 84.8883L29.2733 84.2533C29.0917 83.5549 29 83.2066 29.05 82.8616C29.1 82.5166 29.2867 82.2133 29.66 81.6083L29.9983 81.0583C31.3067 78.9316 31.9617 77.8683 31.5383 77.0149C31.1133 76.1649 29.8917 76.0866 27.4483 75.9349L26.815 75.8949C26.1217 75.8516 25.775 75.8299 25.4733 75.6699C25.1717 75.5099 24.95 75.2299 24.5067 74.6699H24.505Z" fill="#AC84FD"/>
<path opacity="0.5" d="M14.725 90.2099C11.1633 91.9499 8.19833 94.7066 7.08 97.9999C5.82667 90.1549 7.56667 85.0882 10.355 81.9382C10.595 82.4299 10.9083 82.8366 11.1883 83.1549C11.7717 83.8149 12.6083 84.5216 13.4583 85.2399L14.07 85.7566L14.3533 85.9982C14.3617 86.1049 14.37 86.2316 14.3783 86.3932L14.4283 87.2016C14.495 88.2932 14.5617 89.3582 14.725 90.2099Z" fill="#AC84FD"/>
<path d="M95 2V4M95 20V22M85 12H87M103 12H105M89 18L89.343 17.657M100.657 6.343L101 6M101 18L100.657 17.657M89.343 6.343L89 6M98.265 14.627C98.392 15.935 98.455 16.589 98.072 16.88C97.689 17.17 97.114 16.906 95.962 16.376L95.664 16.238C95.337 16.088 95.174 16.012 95 16.012C94.827 16.012 94.663 16.088 94.336 16.238L94.038 16.376C92.886 16.906 92.311 17.171 91.928 16.88C91.545 16.59 91.608 15.935 91.735 14.627L91.767 14.289C91.804 13.917 91.822 13.731 91.767 13.559C91.714 13.387 91.595 13.247 91.357 12.969L91.14 12.715C90.302 11.735 89.882 11.245 90.029 10.774C90.135 10.434 90.487 10.266 91.14 10.094M93.577 8.704C94.21 7.568 94.527 7 95 7C95.473 7 95.79 7.568 96.423 8.704L96.587 8.998C96.767 9.321 96.857 9.482 96.997 9.588C97.137 9.695 97.313 9.735 97.662 9.814L97.98 9.886C99.21 10.164 99.825 10.303 99.971 10.774C100.077 11.114 99.888 11.464 99.459 12" stroke="#5CC387" stroke-width="1.5" stroke-linecap="round"/>
<path d="M234.979 97.003L231.871 97.217C231.037 97.277 230.693 98.296 231.329 98.825L233.717 100.78C234.238 101.208 235.031 100.984 235.24 100.352L235.949 98.225C236.168 97.593 235.657 96.952 234.979 97.003ZM227.75 82.691L227.03 85.591C226.83 86.371 227.69 87.001 228.37 86.571L230.91 84.991C231.46 84.651 231.49 83.851 230.96 83.471L229.18 82.181C229.06 82.0912 228.919 82.0326 228.77 82.0102C228.622 81.9879 228.47 82.0027 228.328 82.0531C228.187 82.1036 228.06 82.1882 227.959 82.2995C227.858 82.4108 227.786 82.5453 227.75 82.691ZM212.43 84.995L214.96 86.575C215.64 87.005 216.5 86.385 216.31 85.595L215.59 82.695C215.553 82.5496 215.481 82.4154 215.381 82.3041C215.28 82.1928 215.154 82.1078 215.013 82.0566C214.872 82.0053 214.72 81.9893 214.572 82.0099C214.423 82.0306 214.282 82.0873 214.16 82.175L212.38 83.465C211.85 83.865 211.88 84.655 212.43 84.995ZM210.185 100.713L212.475 98.793C213.095 98.273 212.765 97.263 211.965 97.213L208.985 97.003C208.835 96.9923 208.684 97.0185 208.547 97.0795C208.409 97.1406 208.289 97.2345 208.196 97.353C208.103 97.4715 208.041 97.611 208.014 97.7592C207.988 97.9074 207.999 98.0598 208.045 98.203L208.725 100.293C208.925 100.913 209.695 101.133 210.185 100.713ZM223.795 108.005L222.675 105.235C222.375 104.485 221.315 104.485 221.015 105.235L219.895 108.005C219.655 108.605 220.095 109.265 220.745 109.265H222.945C223.095 109.264 223.242 109.226 223.374 109.156C223.506 109.085 223.618 108.983 223.702 108.859C223.786 108.735 223.838 108.592 223.854 108.444C223.87 108.295 223.85 108.144 223.795 108.005Z" fill="#EAD493"/>
<path d="M223.564 83.324L225.291 87.044C225.617 87.738 226.258 88.224 227.008 88.334L231.064 88.958C232.899 89.236 233.639 91.488 232.357 92.817L229.268 96C229.019 96.2567 228.835 96.5681 228.728 96.9092C228.622 97.2503 228.597 97.6116 228.656 97.964L229.366 102.338C229.673 104.223 227.679 105.631 226.012 104.708L222.607 102.814C222.27 102.624 221.889 102.524 221.502 102.524C221.115 102.524 220.734 102.624 220.397 102.814L216.993 104.709C215.325 105.631 213.332 104.223 213.638 102.339L214.348 97.964C214.407 97.6116 214.382 97.2503 214.276 96.9092C214.169 96.5681 213.985 96.2567 213.736 96L210.648 92.816C209.355 91.476 210.105 89.235 211.941 88.957L215.996 88.332C216.365 88.2723 216.715 88.1237 217.014 87.899C217.313 87.6743 217.553 87.3801 217.713 87.042L219.44 83.323C220.259 81.558 222.746 81.559 223.564 83.324Z" fill="#EAD493"/>
</svg>
