<svg width="99" height="100" viewBox="0 0 99 100" fill="none" xmlns="http://www.w3.org/2000/svg">
<g clip-path="url(#clip0_972_5909)">
<path d="M85.1807 69.2533C86.3359 69.4955 87.4365 68.5714 87.639 67.1875C87.8545 67.5555 88.07 67.924 88.2854 68.2929C88.0833 69.6765 86.9819 70.6009 85.828 70.3587C85.6125 69.9899 85.3967 69.6214 85.1807 69.2533Z" fill="#1EBC5D"/>
<path d="M51.0645 98.8558C52.2197 99.098 53.3202 98.1736 53.5228 96.79C53.7382 97.1581 53.9537 97.5264 54.1692 97.8952C53.9671 99.2788 52.8657 100.204 51.7117 99.9615C51.4963 99.5925 51.2805 99.2239 51.0645 98.8558Z" fill="#ABB4BD"/>
<path d="M87.7604 46.0879C88.2448 47.3667 89.5024 47.935 90.5708 47.3547C90.4386 47.776 90.3061 48.1973 90.1733 48.6185C89.1048 49.1978 87.8472 48.6303 87.3633 47.3509C87.4964 46.9304 87.6288 46.5094 87.7604 46.0879Z" fill="#FDAD0E"/>
<path d="M80.2846 37.0047C80.4796 35.6192 79.7005 34.3074 78.5439 34.074C78.8498 33.813 79.1559 33.5519 79.4623 33.291C80.6181 33.5244 81.3976 34.8368 81.203 36.2217C80.8972 36.4828 80.5911 36.7438 80.2846 37.0047Z" fill="#021193"/>
<path d="M40.3206 20.9566C39.2402 20.0676 37.7146 20.0482 36.9122 20.9133C36.849 20.5162 36.786 20.1188 36.7231 19.7213C37.525 18.8569 39.0513 18.8763 40.1315 19.7646C40.1948 20.1618 40.2578 20.5591 40.3206 20.9566Z" fill="#021193"/>
<path d="M10.8657 31.4129C11.0607 30.0274 10.2816 28.7156 9.125 28.4822C9.43085 28.2211 9.73699 27.9601 10.0434 27.6992C11.1992 27.9326 11.9787 29.2449 11.7841 30.6299C11.4783 30.891 11.1722 31.152 10.8657 31.4129Z" fill="#1EBC5D"/>
<path d="M34.5209 80.505C34.716 79.1192 33.9369 77.8074 32.7803 77.574C33.0861 77.3129 33.3923 77.0519 33.6987 76.791C34.8544 77.0243 35.6339 78.3368 35.4394 79.722C35.1335 79.9828 34.8274 80.2438 34.5209 80.505Z" fill="#1EBC5D"/>
<path d="M95.1963 28.5863C96.344 28.876 97.4694 27.9964 97.7111 26.6211C97.9164 26.9979 98.1216 27.375 98.3268 27.7524C98.0855 29.1264 96.9592 30.0065 95.8124 29.7176C95.6067 29.3408 95.4014 28.9637 95.1963 28.5863Z" fill="#1EBC5D"/>
<path d="M40.916 3.84335C41.7617 3.01518 41.5983 1.59625 40.5509 0.672656C40.9794 0.694079 41.4082 0.71565 41.8373 0.737375C42.8837 1.65987 43.0472 3.07987 42.2026 3.90769C41.7739 3.88666 41.345 3.86521 40.916 3.84335Z" fill="#1EBC5D"/>
<path d="M3.40659 45.6057C2.99526 44.2898 1.77211 43.6225 0.673828 44.1159C0.829188 43.7068 0.984778 43.2972 1.1406 42.887C2.23797 42.3942 3.4618 43.0609 3.87336 44.3762C3.718 44.7859 3.56242 45.1957 3.40659 45.6057Z" fill="#FDAD0E"/>
<path d="M31.9108 61.6338C31.9918 63.035 33.006 64.0922 34.1754 63.9946C33.9288 64.3348 33.6817 64.6735 33.4356 65.0139C32.2656 65.1104 31.2519 64.0527 31.1709 62.6515C31.4175 62.3128 31.6642 61.9736 31.9108 61.6338Z" fill="#FDAD0E"/>
<path d="M23.6455 36.1753C24.807 35.9822 25.6177 34.6972 25.4561 33.3057C25.7561 33.5774 26.0558 33.8488 26.3549 34.1199C26.5161 35.512 25.7059 36.7961 24.5443 36.99C24.2452 36.7182 23.9455 36.4466 23.6455 36.1753Z" fill="#021193"/>
<path d="M71.0079 19.1105C69.5019 19.1604 70.5846 21.8142 69.078 21.8652C68.7905 21.5758 68.5027 21.2865 68.2148 20.9971C69.7214 20.947 68.6387 18.2931 70.1447 18.2422C70.4327 18.5315 70.7205 18.821 71.0079 19.1105Z" fill="#FDAD0E"/>
<path d="M73.7453 88.8629C72.2793 88.4469 72.7544 91.3453 71.2879 90.9298C71.072 90.5612 70.8562 90.1927 70.6406 89.8241C72.1071 90.2401 71.6316 87.3417 73.0985 87.7578C73.3139 88.1263 73.5295 88.4947 73.7453 88.8629Z" fill="#1EBC5D"/>
<path d="M30.148 92.6357C29.1125 93.9479 31.4444 94.909 30.4089 96.2201C30.0349 96.2585 29.6605 96.2985 29.2865 96.3364C30.3221 95.0253 27.9901 94.0652 29.0257 92.7531C29.4001 92.7147 29.7742 92.6756 30.148 92.6357Z" fill="#021193"/>
<path d="M63.6907 2.04448C62.2162 2.4197 63.6796 4.79757 62.206 5.17198C61.8801 4.94903 61.5524 4.72689 61.2266 4.5034C62.7006 4.1292 61.2364 1.75219 62.7108 1.37695C63.0376 1.60044 63.3642 1.82295 63.6907 2.04448Z" fill="#1EBC5D"/>
<path d="M16.3749 9.86133C17.1001 11.4444 18.5783 9.0799 19.3024 10.6625C19.2183 11.1006 19.1352 11.5404 19.0507 11.9788C18.3266 10.3958 16.8492 12.761 16.124 11.178C16.2084 10.7384 16.292 10.2996 16.3749 9.86133Z" fill="#ABB4BD"/>
<path d="M3.87402 72.1049C4.06854 72.0696 4.24453 71.9672 4.37125 71.8153C4.49798 71.6635 4.56741 71.4719 4.56741 71.2741C4.56741 71.0763 4.49798 70.8847 4.37125 70.7329C4.24453 70.581 4.06854 70.4786 3.87402 70.4434" fill="black"/>
<path d="M82.574 7.91795C81.9403 7.91795 81.4248 7.30026 81.4248 6.54098C81.4248 5.7817 81.9403 5.16406 82.574 5.16406C83.2078 5.16406 83.7233 5.78172 83.7233 6.54099C83.7233 7.30027 83.2078 7.91795 82.574 7.91795ZM82.574 5.71025C82.3727 5.73016 82.1873 5.82836 82.0576 5.98373C81.928 6.1391 81.8644 6.33921 81.8807 6.54099C81.8623 6.64259 81.8664 6.74698 81.8928 6.84679C81.9192 6.94661 81.9671 7.03941 82.0333 7.11865C82.0994 7.19788 82.1821 7.26162 82.2755 7.30536C82.369 7.3491 82.4709 7.37176 82.574 7.37176C82.6772 7.37176 82.7791 7.3491 82.8726 7.30536C82.966 7.26162 83.0487 7.19788 83.1148 7.11865C83.181 7.03941 83.2289 6.94661 83.2553 6.84679C83.2817 6.74698 83.2858 6.64259 83.2674 6.54099C83.2837 6.33921 83.2201 6.13911 83.0905 5.98374C82.9608 5.82837 82.7753 5.73017 82.574 5.71025Z" fill="black"/>
<path d="M15.6727 60.0858C15.039 60.0858 14.5234 59.4682 14.5234 58.7089C14.5234 57.9497 15.039 57.332 15.6727 57.332C16.3064 57.332 16.8219 57.9497 16.8219 58.7089C16.8219 59.4682 16.3064 60.0858 15.6727 60.0858ZM15.6727 57.8782C15.4782 57.9134 15.3022 58.0159 15.1755 58.1677C15.0487 58.3196 14.9793 58.5111 14.9793 58.7089C14.9793 58.9068 15.0487 59.0983 15.1755 59.2502C15.3022 59.402 15.4782 59.5044 15.6727 59.5397C15.8672 59.5044 16.0432 59.402 16.1699 59.2502C16.2966 59.0983 16.3661 58.9068 16.3661 58.7089C16.3661 58.5111 16.2966 58.3196 16.1699 58.1677C16.0432 58.0159 15.8672 57.9134 15.6727 57.8782Z" fill="black"/>
</g>
<path fill-rule="evenodd" clip-rule="evenodd" d="M40.7287 28.5886C41.8183 27.3317 43.1655 26.324 44.679 25.6338C46.1926 24.9437 47.8368 24.5873 49.5003 24.5889C53.0043 24.5889 56.1442 26.1382 58.2719 28.5886C59.9314 28.4701 61.597 28.7102 63.1556 29.2925C64.7141 29.8749 66.129 30.7858 67.3043 31.9635C68.4815 33.1386 69.3921 34.5531 69.9745 36.1111C70.5568 37.6692 70.7971 39.3342 70.6792 40.9933C71.9356 42.0831 72.9429 43.4305 73.6326 44.944C74.3223 46.4575 74.6782 48.1017 74.6763 49.7649C74.6779 51.4284 74.3215 53.0727 73.6314 54.5862C72.9412 56.0997 71.9335 57.447 70.6766 58.5365C70.7945 60.1956 70.5542 61.8607 69.9719 63.4187C69.3896 64.9768 68.4789 66.3913 67.3017 67.5663C66.1266 68.7435 64.7121 69.6542 63.1541 70.2365C61.5961 70.8188 59.931 71.0592 58.2719 70.9412C57.1823 72.1981 55.835 73.2059 54.3215 73.896C52.808 74.5862 51.1637 74.9426 49.5003 74.941C47.8368 74.9426 46.1926 74.5862 44.679 73.896C43.1655 73.2059 41.8183 72.1981 40.7287 70.9412C39.0693 71.0601 37.4038 70.8204 35.8453 70.2385C34.2868 69.6566 32.8718 68.7461 31.6963 67.5689C30.5187 66.3936 29.6079 64.9786 29.0256 63.4201C28.4432 61.8616 28.2031 60.1961 28.3214 58.5365C27.065 57.4467 26.0577 56.0993 25.368 54.5858C24.6783 53.0723 24.3223 51.4282 24.3242 49.7649C24.3242 46.2609 25.8735 43.121 28.324 40.9933C28.2059 39.3342 28.4461 37.6691 29.0285 36.111C29.6108 34.553 30.5215 33.1385 31.6989 31.9635C32.8738 30.7862 34.2883 29.8754 35.8464 29.2931C37.4044 28.7108 39.0696 28.4705 40.7287 28.5886ZM58.8219 45.0809C58.9768 44.8745 59.0889 44.6391 59.1516 44.3887C59.2143 44.1384 59.2263 43.878 59.1869 43.6229C59.1475 43.3678 59.0575 43.1232 58.9222 42.9033C58.7869 42.6835 58.6091 42.493 58.3991 42.3429C58.1891 42.1928 57.9512 42.0862 57.6994 42.0294C57.4477 41.9725 57.1871 41.9666 56.933 42.0119C56.6789 42.0572 56.4364 42.1529 56.2198 42.2932C56.0032 42.4336 55.8168 42.6158 55.6716 42.8292L47.3158 54.5264L43.1223 50.333C42.7552 49.9909 42.2697 49.8047 41.7679 49.8135C41.2662 49.8224 40.7875 50.0256 40.4327 50.3805C40.0779 50.7353 39.8746 51.214 39.8658 51.7157C39.8569 52.2174 40.0432 52.703 40.3853 53.0701L46.1951 58.88C46.3939 59.0786 46.6336 59.2316 46.8974 59.3283C47.1613 59.4251 47.4431 59.4632 47.7231 59.4401C48.0032 59.417 48.2749 59.3332 48.5194 59.1946C48.7639 59.0559 48.9752 58.8658 49.1388 58.6372L58.8219 45.0809Z" fill="#1EBC5D"/>
<defs>
<clipPath id="clip0_972_5909">
<rect width="97.6526" height="100" fill="white" transform="translate(0.673828)"/>
</clipPath>
</defs>
</svg>
