<svg width="32" height="32" viewBox="0 0 32 32" fill="none" xmlns="http://www.w3.org/2000/svg">
<path d="M0 10.7333C0 6.93673 0 5.03843 0.750577 3.5935C1.38308 2.37588 2.37588 1.38308 3.5935 0.750577C5.03843 0 6.93673 0 10.7333 0H21.2667C25.0633 0 26.9616 0 28.4065 0.750577C29.6241 1.38308 30.6169 2.37588 31.2494 3.5935C32 5.03843 32 6.93673 32 10.7333V21.2667C32 25.0633 32 26.9616 31.2494 28.4065C30.6169 29.6241 29.6241 30.6169 28.4065 31.2494C26.9616 32 25.0633 32 21.2667 32H10.7333C6.93673 32 5.03843 32 3.5935 31.2494C2.37588 30.6169 1.38308 29.6241 0.750577 28.4065C0 26.9616 0 25.0633 0 21.2667V10.7333Z" fill="#1EA1F2"/>
<path fill-rule="evenodd" clip-rule="evenodd" d="M24.8821 12.1015C24.8899 12.3013 24.8925 12.5011 24.8925 12.701C24.8925 18.7607 20.6298 25.7562 12.8348 25.7562C10.4404 25.7562 8.21385 24.993 6.33789 23.6939C6.6695 23.7302 7.00628 23.7575 7.34822 23.7575C9.33357 23.7575 11.1622 23.0215 12.6126 21.7859C10.7582 21.7587 9.19232 20.4232 8.65227 18.6062C8.91153 18.6607 9.17852 18.6881 9.45156 18.6881C9.83657 18.6881 10.2104 18.6336 10.5687 18.5246C8.62813 18.1067 7.16649 16.2534 7.16649 14.0276C7.16649 14.0003 7.16649 13.9912 7.16649 13.973C7.7384 14.3092 8.393 14.518 9.08808 14.5453C7.94942 13.7185 7.20092 12.3104 7.20092 10.7205C7.20092 9.88473 7.40936 9.0943 7.77628 8.41293C9.86585 11.1929 12.9899 13.019 16.5118 13.2098C16.4395 12.8737 16.4024 12.5194 16.4024 12.1651C16.4024 9.63043 18.2999 7.57719 20.641 7.57719C21.8597 7.57719 22.9605 8.13145 23.7331 9.02177C24.7004 8.8219 25.6065 8.44036 26.4265 7.91344C26.1087 8.98546 25.4377 9.88468 24.5608 10.4479C25.4187 10.3389 26.237 10.0938 26.9958 9.73042C26.4265 10.648 25.7099 11.4564 24.8821 12.1015Z" fill="white"/>
</svg>
