<svg width="44" height="44" viewBox="0 0 44 44" fill="none" xmlns="http://www.w3.org/2000/svg">
<path d="M5.5 13.5C5.5 9.72876 5.5 7.84315 6.67157 6.67157C7.84315 5.5 9.72876 5.5 13.5 5.5H30.5C34.2712 5.5 36.1569 5.5 37.3284 6.67157C38.5 7.84315 38.5 9.72876 38.5 13.5V30.5C38.5 34.2712 38.5 36.1569 37.3284 37.3284C36.1569 38.5 34.2712 38.5 30.5 38.5H13.5C9.72876 38.5 7.84315 38.5 6.67157 37.3284C5.5 36.1569 5.5 34.2712 5.5 30.5V13.5Z" fill="#7E869E" fill-opacity="0.25"/>
<circle cx="22.0001" cy="18.3333" r="7.33333" fill="white"/>
<path fill-rule="evenodd" clip-rule="evenodd" d="M34.8265 38.1372C34.8313 38.2642 34.7372 38.3735 34.6108 38.3871C33.5616 38.5 32.2289 38.5 30.4999 38.5H13.4999C11.771 38.5 10.4384 38.5 9.38918 38.3871C9.26278 38.3735 9.16871 38.2643 9.17352 38.1372C9.39682 32.23 15.054 27.5 22 27.5C28.946 27.5 34.6032 32.23 34.8265 38.1372Z" fill="white"/>
</svg>
